<?xml version="1.0" standalone="no"?>
<!DOCTYPE svg PUBLIC "-//W3C//DTD SVG 1.1//EN" "http://www.w3.org/Graphics/SVG/1.1/DTD/svg11.dtd" >
<svg xmlns="http://www.w3.org/2000/svg">
<metadata>
This is a custom SVG webfont generated by Font Squirrel.
Copyright   : Copyright c 2011 by Kimberly Geswein All rights reserved
Designer    : Kimberly Geswein
Foundry     : Kimberly Geswein
</metadata>
<defs>
<font id="KGLoveYouThroughItRegular" horiz-adv-x="754" >
<font-face units-per-em="2048" ascent="1638" descent="-410" />
<missing-glyph horiz-adv-x="840" />
<glyph unicode=" "  horiz-adv-x="840" />
<glyph unicode="&#x09;" horiz-adv-x="840" />
<glyph unicode="&#xa0;" horiz-adv-x="840" />
<glyph unicode="!" horiz-adv-x="416" d="M132 1692q2 36 30 50t59 7t56 -34t21 -71l-24 -1180q-8 -36 -29 -50t-43 -11t-41 18t-25 37zM133 125q1 33 21 55t49 31t53 3q38 -10 49 -52t-3 -80t-49 -55t-87 21q-34 44 -33 77z" />
<glyph unicode="&#x22;" horiz-adv-x="766" d="M148 1622q-2 36 26 53t66 10t77 -37t59 -86t14 -140t-58 -198q-28 -28 -65 -39t-64 -5t-36 31t21 71q26 38 42 88t0 106q-6 18 -19 36t-27 36t-25 37t-11 37zM428 1662q-2 36 26 53t66 10t77 -37t59 -86t14 -140t-58 -198q-28 -28 -65 -39t-64 -5t-36 31t21 71 q26 38 42 88t0 106q-6 18 -19 36t-27 36t-25 37t-11 37z" />
<glyph unicode="#" horiz-adv-x="1960" d="M41 449q5 35 47 69q18 0 65 4t99 8t98 8t64 6q22 2 60 9t75 13t65 12t32 8l28 12q2 0 9 19t15 45t17 54t13 46q2 4 2 20t-2 20h-340q-10 14 -24 23t-29 19t-27 22t-16 32q-8 46 20 68t75 27t108 1t119 -9t107 -6t75 15q10 6 21 47t27 97t36 118t47 110t62 72t79 4 q46 -20 59 -50t5 -65t-29 -73t-44 -75t-41 -71t-18 -60v-28h40q14 2 35 4t41 4t34 4l14 2l80 286q-4 18 -2 42t10 47t23 40t37 21q76 8 107 -10t36 -53t-10 -82t-34 -96t-34 -93t-9 -74q60 -4 120 1t118 8t118 3t120 -12q10 -2 28 -12t33 -23t23 -29t-2 -32q-6 -10 -22 -25 t-20 -15l-504 -28q-40 -2 -55 -5t-25 -35q-4 -10 -10 -32t-12 -46t-12 -44t-8 -28v-28h218q16 0 55 -2t82 -4t81 -4t54 -4q44 -4 81 -19t54 -39t6 -55t-59 -63h-14q-56 12 -106 18t-100 9t-103 3t-113 -2q-10 0 -33 -2t-49 -5t-49 -5t-31 -2q-30 -4 -51 -47t-40 -103 t-37 -126t-40 -119t-50 -82t-68 -13q-14 6 -28 15t-24 21t-15 27t-1 31q6 12 17 41t24 61t25 61t16 41q2 8 8 27t12 40t12 41t8 28v28l-176 -28l-14 -12q-6 -18 -19 -63t-28 -94t-29 -94t-20 -63q-10 -34 -30 -50t-43 -16t-44 16t-33 50q-14 40 -4 76t27 71t30 69t3 70h-42 l-380 -68q-44 -8 -83 6t-59 41t-15 62zM876 653q0 -9 2 -13q16 -2 45 -4t59 0t54 11t32 33q4 10 10 31t13 43t12 40t5 22q2 4 2 21t-2 21q-40 4 -92 2t-84 -30q-14 -32 -31 -78t-23 -86q-2 -4 -2 -13z" />
<glyph unicode="$" horiz-adv-x="928" d="M18 216q-30 56 0 102q0 2 13 7t28 11t28 10t15 4q36 -88 107 -142t151 -76l6 592q-80 96 -154 199t-130 203q-54 96 -50 191t49 176t122 142t171 91q-4 84 25 119t65 34t67 -31t35 -72q0 -8 -6 -28q84 -6 161 -46t141 -122q20 -28 16 -66t-22 -68t-43 -43t-45 13 q-36 82 -100 121t-136 39l-16 -792l64 -80q32 -40 61 -74t51 -60t34 -36q70 -88 97 -164t22 -140t-37 -114t-80 -86t-108 -58t-120 -28v-32q2 -30 -2 -55t-17 -37t-36 -7t-59 33q-6 4 -17 25t-11 29v54q-50 18 -121 59t-130 94t-89 109zM203 1263q3 -71 46 -146t119 -155 l6 564q-4 -2 -8 -6q-88 -58 -127 -122t-36 -135zM504 118q54 6 97 29t62 65t10 102t-59 138q-24 24 -49 51t-53 55z" />
<glyph unicode="%" horiz-adv-x="998" d="M62 -16q126 306 227 529t177 383t129 266t83 177t40 116t0 83l-166 -36q34 -36 34 -83t-23 -95t-63 -93t-87 -78t-96 -49t-89 -6q-42 12 -79 40t-57 69t-19 92t37 107q44 72 126 124t176 82t187 35t162 -17t99 -71t-2 -129l-588 -1308q-6 -40 -25 -84t-47 -71t-63 -28 t-73 45zM216 1270q36 -38 80 -26t81 50t60 89t17 93q-40 -6 -89 -25t-88 -46t-59 -62t-2 -73zM461 246q-7 64 23 162q40 108 97 164t116 71t111 -6t82 -68t30 -116t-44 -149q-40 -70 -92 -116t-106 -67t-102 -15t-78 41t-37 99zM582 341q-14 -61 3 -94t59 -21t102 96 q20 32 25 76t-7 74t-41 34t-75 -42q-52 -62 -66 -123z" />
<glyph unicode="&#x26;" horiz-adv-x="932" d="M59 802q3 62 33 114t85 73t134 1t183 -98q2 6 2 39v71q0 38 2 73t6 45q10 30 33 57t49 37t48 -5t32 -69l-2 -350q94 40 142 42t61 -19t-3 -59t-52 -78t-84 -74t-100 -50l2 -362q-10 -4 -31 -8t-43 -5t-40 4t-24 19l-6 324q-112 -32 -194 -15t-135 61t-77 107t-21 125z M202 775q-10 -39 13 -70t83 -39t166 40q-70 94 -126 117t-91 7t-45 -55z" />
<glyph unicode="'" horiz-adv-x="492" d="M148 1622q-2 36 26 53t66 10t77 -37t59 -86t14 -140t-58 -198q-28 -28 -65 -39t-64 -5t-36 31t21 71q26 38 42 88t0 106q-6 18 -19 36t-27 36t-25 37t-11 37z" />
<glyph unicode="(" horiz-adv-x="868" d="M227 655q3 157 30 309t76 290t118 239t155 155t186 38q36 -6 44 -23t-1 -36t-31 -35t-46 -18q-68 -2 -131 -67t-115 -172t-89 -243t-53 -279t-8 -282t45 -250t107 -184t180 -83q42 -18 36 -40t-43 -37t-96 -17t-123 22q-86 60 -140 170t-79 248t-22 295z" />
<glyph unicode=")" horiz-adv-x="722" d="M28 1663q8 17 44 23q100 16 186 -38t155 -155t118 -239t76 -290t30 -309t-22 -295t-79 -248t-140 -170q-64 -24 -123 -22t-96 17t-43 37t36 40q110 10 180 83t107 184t45 250t-8 282t-53 279t-89 243t-115 172t-131 67q-24 2 -46 18t-31 35t-1 36z" />
<glyph unicode="*" horiz-adv-x="1288" d="M213 814q3 26 21 47t48 21h180l-174 200q-18 32 -10 60t29 44t49 17t48 -21l148 -224l40 272q6 28 31 46t55 21t57 -13t35 -54l-46 -292l172 274q24 14 54 7t53 -28t30 -51t-17 -60l-190 -220l252 18q62 -64 59 -93t-51 -38t-130 -6t-178 1q30 -22 67 -50t71 -55t60 -49 t36 -32q-36 -68 -80 -79t-88 10t-85 61t-71 70q-6 -76 -18 -156t-42 -152q-72 -16 -97 8t-24 69t18 104t29 111q-22 -16 -52 -38t-62 -45t-62 -43t-54 -28q-60 42 -61 83t31 79t85 71t101 61l-204 -14q-36 8 -51 34t-12 52z" />
<glyph unicode="+" horiz-adv-x="1146" d="M231 666q3 26 21 47t48 21h250l60 348q6 28 31 46t55 21t57 -13t35 -54l-60 -336q34 -2 78 1t86 7t79 7t55 3q20 -58 9 -95t-40 -58t-72 -29t-85 -11t-78 -3t-54 -4q-10 -92 -20 -191t-48 -189q-64 -14 -96 -2t-42 42t-4 73t16 91t19 95t7 85l-244 12q-36 8 -51 34 t-12 52z" />
<glyph unicode="," horiz-adv-x="558" d="M147 -223q-1 11 12 27t29 40q26 38 42 88t0 106q-6 18 -19 36t-27 36t-25 37t-11 37q-2 36 29 52t74 9t87 -38t70 -88t23 -141t-55 -198q-16 -18 -29 -29t-28 -16t-34 -4t-47 7q-50 12 -70 20t-21 19z" />
<glyph unicode="-" horiz-adv-x="802" d="M133 638q-1 26 13 54t42 44q18 2 85 5t145 6t145 5t85 2q26 2 43 -20t21 -50t-8 -56t-44 -40l-472 -12q-26 0 -40 18t-15 44z" />
<glyph unicode="." horiz-adv-x="434" d="M100 84q-8 28 2 53t32 46t49 32t56 10t51 -17q36 -28 32 -71t-31 -77t-69 -48t-82 18q-32 26 -40 54z" />
<glyph unicode="/" horiz-adv-x="654" d="M44 -24l388 1558q14 76 50 109t69 26t49 -54t-12 -131l-336 -1370q-6 -40 -25 -84t-47 -71t-63 -28t-73 45z" />
<glyph unicode="0" horiz-adv-x="894" d="M68 947q6 139 22 271t36 232q32 108 94 184t122 105t100 1t30 -128q134 24 223 -39t137 -181t59 -274t-10 -319t-70 -319t-120 -271t-161 -175t-192 -32q-58 30 -96 77t-65 103t-45 119t-32 129q-24 106 -31 242t-1 275zM238 748q4 -142 23 -257t52 -190t83 -81 q80 22 137 88t93 159t54 205t22 224t-4 215t-24 179q-20 64 -69 111t-107 65q-6 2 -33 -10t-57 -17t-51 7t-15 62q-38 -84 -62 -210t-35 -267t-7 -283z" />
<glyph unicode="1" horiz-adv-x="456" d="M96 1608q-6 90 28 124t78 29t83 -39t43 -78q0 -4 -4 -17t-8 -28t-9 -29t-5 -16q-4 -18 1 -26t-7 -20l34 -1444q4 -62 -39 -78t-117 40q-6 4 -17 25t-11 29z" />
<glyph unicode="2" horiz-adv-x="994" d="M-1 349q11 97 51 174t103 133t136 81t149 18t144 -55q12 -8 17 11t5 55t-4 81t-8 89t-7 80t-3 54q-2 80 -17 157t-40 140t-61 105t-82 52t-102 -18t-120 -106q-18 -14 -31 8t-19 61t-4 84t16 79q2 6 10 16t14 14q6 2 29 12t49 21t49 21t29 12q74 34 157 -13t163 -169 q66 -102 103 -230t53 -268t13 -282t-17 -272l176 -374q14 -30 8 -62t-22 -56t-38 -35t-38 -1q-46 0 -72 40t-41 88t-24 88t-23 38q-28 -38 -59 -76t-63 -71t-66 -56t-70 -31q-48 -8 -95 -18t-94 -9t-95 20t-102 67q-2 4 -8 17t-12 29t-11 31l-7 21q-30 108 -19 205zM155 332 q-17 -68 5 -138q32 -58 96 -64t133 25t128 95t81 146q-28 90 -77 130t-105 41t-111 -31t-94 -84t-56 -120z" />
<glyph unicode="3" horiz-adv-x="910" d="M-20 1633q18 27 36 39q10 6 33 20t47 27t45 24t27 13q100 34 199 20t225 -80q26 -14 45 -28t34 -32t31 -43t36 -59q30 -52 26 -108t-29 -111t-62 -106t-75 -94t-68 -75t-40 -48q164 -68 256 -169t119 -210t-10 -214t-133 -183q-12 -12 -42 -33t-64 -44t-65 -42t-43 -25 q-6 -4 -30 -10t-52 -14t-53 -14t-31 -8q-22 -6 -43 -17t-44 -14t-47 9t-54 52q-6 8 -18 27t-21 38t-10 34t11 19q18 2 62 16t94 30t94 31t62 23q6 2 25 14t41 26t42 28t30 20q6 4 20 19t30 31t30 32t20 24q50 60 50 112t-33 92t-88 67t-113 41q-52 12 -94 14t-80 -4t-74 -18 t-76 -30q-18 -2 -41 28t-38 70t-16 79t21 55l218 78q22 16 67 73t90 128t80 139t41 108q-50 28 -102 44t-101 18t-93 -11t-76 -43q-4 -4 -16 -15t-26 -25l-26 -26l-16 -16q-34 -26 -70 12t-70 116q-22 52 -4 79z" />
<glyph unicode="4" horiz-adv-x="1028" d="M60 1202q-6 86 3 174t34 155t68 102t107 17q38 -12 58 -27t30 -55q2 -4 -1 -20t-3 -22q-4 -6 -15 -33t-25 -58t-26 -58t-14 -33q-4 -18 -5 -53t0 -73t3 -73t4 -53q8 -64 44 -99t84 -47t102 -4t97 30t69 54t20 70l-18 714q14 14 40 16t54 -6t53 -27t41 -45q2 -2 2 -13v-15 q0 -4 -1 -23t-2 -72t-1 -151t2 -262q60 38 92 34t48 -34q20 -22 9 -66t-34 -90t-49 -88t-34 -62l10 -664q0 -38 6 -96t-1 -108t-33 -79t-88 -9q-56 0 -70 38t-11 136t9 266t-8 428q-80 -34 -161 -49t-156 -4t-142 50t-119 111q-28 40 -47 115t-25 161z" />
<glyph unicode="5" horiz-adv-x="952" d="M48 1620q4 24 31 34t63 15t72 6t60 5q72 14 125 25t102 18t105 9t134 0q26 0 51 -15t46 -38t35 -49t19 -48t-1 -38t-26 -16q-32 2 -81 6t-107 6t-119 0t-117 -12t-101 -31t-69 -55q6 -10 7 -56t3 -99t10 -99t30 -58q186 -2 304 -59t178 -148t70 -205t-21 -228t-95 -218 t-151 -176t-189 -100t-208 8q-42 20 -58 50t-13 54t21 36t44 0q112 8 195 47t141 95t94 122t54 130t20 118t-6 86q-12 50 -60 90t-123 64t-173 29t-208 -13q-40 2 -57 59t-22 153t-4 224t-5 272z" />
<glyph unicode="6" horiz-adv-x="918" d="M59 795q-5 169 9 334t45 319t79 284q18 48 60 61t81 0t61 -49t2 -84q-72 -154 -108 -292t-50 -248t-13 -186t1 -108q40 64 104 101t136 44t144 -17t129 -82t90 -151t27 -223q-4 -132 -45 -232t-113 -166t-173 -97t-223 -27q-64 50 -101 110t-58 124t-33 130t-24 126 q-22 160 -27 329zM302 398q6 -78 24 -146t48 -92q56 -6 113 19t102 70t75 104t36 119q14 76 -3 134t-52 97t-81 57t-92 13t-85 -33t-59 -82q-18 -36 -25 -109t-1 -151z" />
<glyph unicode="7" horiz-adv-x="1000" d="M58 1556q-16 62 5 89t68 34t117 1t153 -12t176 -5t185 25q14 4 44 2t58 -12t47 -30t15 -52l-312 -1552q-4 -20 -14 -38t-27 -27t-40 -6t-51 25q-4 4 -23 24t-27 30q-6 6 -6 14l290 1392l-6 14q-2 2 -7 2t-7 -2q-110 -28 -243 -30t-267 16q-46 6 -72 35t-56 63z" />
<glyph unicode="8" horiz-adv-x="826" d="M47 1192q-5 64 7 123t46 105q20 38 56 87t82 88t102 56t114 -9q146 -74 230 -179t104 -215t-27 -212t-161 -170q18 -6 41 -18t49 -36t50 -63t44 -101q40 -86 32 -180t-48 -180t-105 -157t-141 -111t-155 -42t-147 50q-64 44 -97 118t-42 158t2 171t36 158t60 120t73 57 q-36 12 -71 50t-63 90t-47 115t-24 127zM227 1247q-11 -59 5 -118t72 -101q48 -54 102 -55t99 31t75 88t28 120q0 2 -4 26t-10 54t-16 56t-24 36q-50 60 -104 68t-100 -17t-79 -77t-44 -111zM233 323q1 -101 53 -173q62 -14 121 9t106 71t79 113t40 131t-10 128t-72 106 q-96 14 -169 -44t-111 -149t-37 -192z" />
<glyph unicode="9" horiz-adv-x="944" d="M28 1178q0 72 20 146t55 145t81 126t102 90t116 37q60 24 136 40t147 3t123 -68t62 -171q0 -6 -2 -21t-3 -31t-3 -30t-2 -20l-34 -1382q-30 -22 -61 -26t-55 2t-39 19t-13 29q6 234 12 400t12 280t10 183t8 105t6 48t2 14q-72 -120 -166 -186t-187 -73t-175 45t-130 168 q-22 56 -22 128zM230 1161q-4 -77 32 -125q46 -38 99 -24t103 60t91 115t63 142t19 141t-39 114q-16 2 -24 -1t-14 -10l-12 -14q-6 -7 -16 -9q-4 -2 -22 -7t-40 -9t-41 -8t-25 -6q-34 -12 -75 -71t-68 -135t-31 -153z" />
<glyph unicode=":" horiz-adv-x="340" d="M58 972q-8 28 2 53t32 46t49 32t56 10t51 -17q36 -28 32 -71t-31 -77t-69 -48t-82 18q-32 26 -40 54zM96 626q0 24 14 46t37 34t53 12t62 -18q32 -20 35 -53t-14 -63t-49 -46t-68 0q-38 16 -54 40t-16 48z" />
<glyph unicode=";" horiz-adv-x="514" d="M107 505q-3 33 21 61t82 32q42 0 72 -33t37 -70t-15 -65t-82 -16q-52 2 -82 30t-33 61zM161 -311q-1 11 12 27t29 40q26 38 42 88t0 106q-6 18 -19 36t-27 36t-25 37t-11 37q-2 36 29 52t74 9t87 -38t70 -88t23 -141t-55 -198q-16 -18 -29 -29t-28 -16t-34 -4t-47 7 q-50 12 -70 20t-21 19z" />
<glyph unicode="&#x3c;" horiz-adv-x="708" d="M86 729q-6 31 20 53l340 192l122 108q24 20 56 8t53 -41t23 -66t-36 -63l-314 -218q2 -36 34 -76t75 -79t85 -75t66 -62q4 -30 -11 -60t-39 -49t-55 -21t-61 26q-32 48 -77 95t-91 93l-88 88q-42 42 -69 79t-33 68z" />
<glyph unicode="=" horiz-adv-x="804" d="M121 668q9 34 67 68q12 2 47 7t82 11t99 12t99 12t82 10t47 6q40 4 69 -10t35 -35t-17 -46t-83 -41q-136 -36 -223 -51t-138 -18t-72 1t-27 6q-76 34 -67 68zM138 374q-4 28 21 50t47 30q28 -4 79 5t110 22t121 25t113 15t84 -8t37 -45q-12 -16 -16 -31t-7 -27t-11 -22 t-28 -18q-26 6 -78 -3t-120 -23t-146 -27t-152 -11q-24 8 -37 23t-17 45z" />
<glyph unicode="&#x3e;" horiz-adv-x="556" d="M79 408q11 28 39 51t65 42t67 36t44 35t-2 40q-34 44 -74 83t-62 93q-24 62 -9 106t47 64t69 12t57 -46q8 -16 10 -34l4 -36q2 -18 4 -35t10 -31q10 -22 27 -42t37 -39t39 -36t33 -33q32 -36 20 -80t-45 -84t-73 -72t-64 -46q-6 -4 -25 -14t-41 -21l-42 -21 q-20 -10 -28 -12q-14 -8 -29 -4t-27 14t-22 23t-16 21q-24 38 -13 66z" />
<glyph unicode="?" horiz-adv-x="1048" d="M120 1464q176 176 309 248t216 60t112 -96t-5 -221t-136 -315t-280 -374l30 -250q8 -52 -12 -73t-48 -22t-55 13t-31 34l-30 332q14 24 65 94t112 161t122 189t97 178q28 64 27 106t-39 45t-116 -42t-200 -153q-6 -10 -34 -7t-56 15t-45 33t-3 45zM230 89q-4 39 17 69 t57 41t72 -19q36 -28 46 -69t-3 -72t-48 -42t-89 23q-48 30 -52 69z" />
<glyph unicode="@" horiz-adv-x="1700" d="M109 732q-3 178 42 355t137 327t228 262t318 158q168 0 297 -64t222 -168t148 -237t73 -271q12 -52 6 -133t-29 -175t-61 -192t-90 -182t-117 -147t-140 -86t-160 3t-177 116q-96 -56 -162 -52t-107 51t-58 128t-17 179t17 205t45 207t65 183t77 133q98 116 162 132 t101 -37t49 -158t7 -231t-23 -257t-44 -235q-16 -100 5 -155t62 -74t95 -5t106 51t92 94t54 123q50 142 72 274t6 264q-10 64 -38 141t-72 151t-101 138t-125 104t-143 48t-155 -30q-158 -94 -264 -222t-169 -271t-86 -293t-13 -286q22 -86 54 -178t77 -176t107 -153 t146 -109t191 -43t243 43q70 20 133 60t120 90t110 104t107 100q32 10 35 -13t-7 -57t-28 -68t-26 -46q-36 -46 -86 -94t-121 -94t-166 -86t-219 -66q-202 2 -352 79t-250 205t-150 293t-53 343zM584 645q-4 -87 12 -158t60 -111q28 4 51 23t38 41t23 43t6 29q28 90 46 194 t29 205t12 189t-8 145t-29 74t-50 -23q-28 -46 -59 -120t-59 -163t-48 -185t-24 -183z" />
<glyph unicode="A" horiz-adv-x="986" d="M38 14l104 556q2 12 -7 22t-21 20t-22 22t-8 26q4 26 23 42t41 29t41 27t25 36l210 980q12 50 41 59q10 3 20 3l38 -11q29 -17 52 -52t27 -73q28 6 52 -10t41 -41t27 -53t12 -48l26 -648q22 0 52 7t62 15t62 16t50 10q32 -14 41 -27q7 -10 7 -20q0 -15 -13 -36 q-9 -15 -13 -31q-26 -14 -57 -27t-62 -27t-61 -30t-54 -34q0 -12 6 -55t14 -102t18 -125t19 -125t15 -102t8 -55t7 -31t13 -37t16 -33t18 -19q30 64 56 74t42 -12t21 -65q1 -13 1 -25q0 -30 -8 -57q-12 -39 -44 -64q-21 -16 -52 -16q-17 0 -38 5q-40 8 -71 29t-54 50t-37 64 t-20 69q-2 12 -10 56t-17 102t-20 125t-21 125t-17 101t-9 55q-16 6 -57 -5t-87 -26t-87 -31t-55 -22l-134 -572q-10 -30 -37 -38t-54 -1t-47 24q-15 13 -15 28q0 4 1 9zM374 770q19 -10 49 -10h11q38 2 72 15t58 38q19 20 19 46q0 6 -1 13q-2 20 -4 72t-3 119t-2 141 t-4 138t-7 109t-12 55q-18 -24 -37 -79t-39 -127t-38 -151t-31 -153t-22 -134t-9 -92z" />
<glyph unicode="B" horiz-adv-x="810" d="M12 806l36 86l-2 960q-2 62 28 89q28 25 60 25h5q35 -2 63 -31q23 -24 23 -61q0 -8 -1 -16l14 -126q68 8 130 13q16 1 30 1q45 0 85 -11q53 -15 95 -58t66 -129q7 -26 7 -54q0 -42 -16 -90q-27 -80 -71 -160t-91 -152t-65 -120q23 1 44 1q117 0 185 -37q81 -44 112 -123 q21 -54 21 -120q0 -30 -4 -61q-14 -102 -57 -210t-109 -212t-140 -184t-150 -126q-67 -41 -124 -41q-7 0 -14 1q-10 2 -28 9t-35 17t-28 23t-9 27q6 26 21 37t35 16t42 10t40 17q90 54 166 131t124 173t65 205q7 43 7 87q0 68 -16 138q2 38 -45 51q-29 8 -64 8q-21 0 -45 -3 q-62 -8 -117 -34t-67 -64l-32 -630q-2 -30 -28 -38t-58 0t-57 27t-23 43l26 644q-4 2 -10 9t-12 15t-10 16t-2 12zM220 1058q18 10 51 51t71 98t72 122t54 121q17 49 17 85v11q-3 40 -39 48q-38 0 -77 -10t-71 -29t-52 -48t-18 -67q0 -10 -1 -39t-1 -69t-2 -85t-2 -84 t-1 -68t-1 -37z" />
<glyph unicode="C" horiz-adv-x="952" d="M56 601q10 131 36 261t63 254t75 228q26 72 73 151t103 142t114 100q44 28 82 28q12 0 24 -3q48 -12 82 -84t42 -226v-150q0 -4 2 -17t4 -28t5 -28t3 -15v-22q-12 -44 -24 -97t-27 -92t-37 -52q-6 -3 -13 -3q-19 0 -43 26q-42 42 -50 108q-4 35 -4 73q0 33 3 68 q7 75 21 153t16 144q-6 4 -13 4q-25 0 -60 -44q-45 -56 -95 -158t-99 -236t-83 -273t-47 -271q-5 -54 -5 -102q0 -70 11 -129q19 -99 78 -150q41 -36 107 -36q29 0 62 7q24 4 63 39t84 82t92 97t87 87t70 53t40 -8q4 -27 4 -54q0 -57 -20 -110q-30 -78 -87 -143t-130 -113 t-147 -75t-139 -29h-9q-59 0 -94 24q-94 62 -144 159t-68 213q-12 75 -12 155q0 45 4 92z" />
<glyph unicode="D" horiz-adv-x="902" d="M10 1570q-5 9 -5 17q0 11 13 17l84 34q-4 66 -4 114t16 100q10 30 40 35q9 1 18 1q22 0 44 -8q32 -12 60 -38t36 -58q2 -16 -3 -37t-10 -43t-6 -42t11 -34q12 -6 41 -19t62 -28t62 -29t41 -20q24 -10 49 -30t49 -44t46 -49t38 -43q74 -114 117 -262t51 -303q2 -34 2 -67 q0 -121 -23 -238q-29 -150 -99 -271t-182 -201t-272 -92q-36 14 -52 34t-23 43t-10 49t-13 52q-2 6 -10 11t-17 11t-16 13t-7 17q14 80 21 182t9 216q1 57 1 115.5t-1 118.5q-2 120 -8 236t-16 221t-20 191q2 8 -23 30t-51 48t-40 50zM298 1472l18 -1364q13 -3 28 -3 q12 0 25 2q29 5 56 16t49 23t32 22q84 82 131 214t57 285q3 42 3 85q0 112 -19 226q-26 158 -88 294q-38 80 -111 130t-155 72q-4 1 -10 1h-7q-11 -1 -9 -3z" />
<glyph unicode="E" horiz-adv-x="1164" d="M10 220q2 14 22 19t48 4t61 -5t60 -5t44 3t17 20v1158q-2 24 -17 48t-34 47t-35 42t-17 36t17 29t68 18q-5 30 -5 55q0 50 19 81q28 46 70 50h8q38 0 77 -32q43 -36 59 -110l36 -6l342 48q9 1 17 1q28 0 54 -15q33 -20 53 -48t24 -54t-14 -30l-520 -112q-10 -2 -15 -33 t-6 -77t-1 -99t2 -98t3 -76l1 -31q78 12 137 26t114 22q49 7 100 7h13q58 -1 136 -17q34 -22 45 -59t7 -61q-44 -4 -119 -14t-155 -28t-153 -44t-113 -64v-44v-99q0 -59 -1 -129q0 -35 -0.5 -67.5t0.5 -63.5q1 -61 4 -106t7 -55l514 24h9q42 0 70 -16q31 -18 38 -42 q2 -6 2 -13q0 -17 -14 -33q-19 -22 -69 -28l-538 -58q-24 -2 -38 -14t-21 -29t-13 -39t-14 -42q-10 -15 -33 -15h-8q-29 3 -60 20t-55 42t-26 53q-18 0 -55 10t-73 31t-60 51q-18 22 -18 48q0 9 2 18z" />
<glyph unicode="F" horiz-adv-x="970" d="M-15 974q-7 12 -7 24q0 24 24 52q12 14 47 13t72 -4q28 -2 50 -2h15q28 1 26 17l-22 278l-12 26q-9 -2 -20 -2q-23 0 -50 9q-40 13 -73 36t-50 53q-8 15 -8 30q0 16 9 32q8 16 50 40t94 47t103 39q45 14 72 14h7l476 92l96 4h4q21 0 38 -19q18 -21 27 -49q10 -31 10 -61 q0 -24 -9 -35q-144 -4 -276 -29t-252 -65q-20 -6 -30 -24t-14 -34q-2 -24 -5 -76t-3 -109t5 -106t19 -69q22 -2 43 -2q46 0 89 9q62 13 121 31t121 33q49 12 103 12q14 0 29 -1q20 -10 38 -30t20 -38v-10q0 -39 -27 -64q-31 -28 -77 -44t-96 -23t-82 -11q-12 -2 -50 -6 t-82 -11t-84 -17t-52 -22l-12 -828q0 -20 -3 -43t-12 -41t-29 -24q-5 -2 -12 -2q-17 0 -40 12q-16 8 -43 26t-39 38q2 68 9 179t11 233q3 81 3 160q0 39 -1 77q-2 115 -18 191q-9 -1 -20 -1q-27 0 -64 7q-52 10 -95 32t-62 56z" />
<glyph unicode="G" horiz-adv-x="1130" d="M58 487q2 147 25 299t59 295t76 253q26 72 73 151t103 142t114 100q44 28 82 28q12 0 24 -3q48 -12 82 -84t42 -226q-36 -60 -64 -82t-47 -11t-27 53q-6 34 -6 83v25q-12 15 -28 15q-20 0 -45 -24q-45 -43 -96 -137t-99 -225t-83 -271t-49 -277q-6 -58 -6 -111 q0 -71 11 -132q19 -106 77 -169q50 -54 139 -54q14 0 29 1q44 4 102 57t116 132t110 174t84 183t36 158v14q0 59 -32 84q-112 -28 -175 -43t-95 -23t-41 -9t-15 -1q-36 20 -48 41t-12 47q0 38 19 64t47 26h76q52 0 108 2t106 9t72 23q10 8 12 23t3 31t6 30t19 24 q39 26 72 26q5 0 10 -1q36 -5 56 -31q21 -27 21 -69q0 -38 -23 -75l-100 -1064q-4 -16 -14 -37t-25 -37t-33 -20q-4 -1 -7 -1q-15 0 -31 13q-10 8 -30 29t-24 25q-6 8 -3 43t10 85t16 108t19 109t18 89t12 50q-102 -230 -246 -345q-139 -111 -284 -111h-10q-110 4 -173 77 t-90 189q-25 108 -25 243v20z" />
<glyph unicode="H" horiz-adv-x="868" d="M-88 1045q28 5 61 -8t63 -29t42 -10v66q0 48 1 113t1 137t1 136t2 112t3 64q8 70 34 109t58 51q17 6 34 6q16 0 31 -5q33 -11 52 -41t20 -76v-3q0 -45 -29 -99l-30 -614q67 -1 115 -1h44q59 1 90 6t40 12t9 15l-6 658q2 32 17 61t41 42t61 2t77 -57q14 -16 18 -28t4 -21 t1 -17t9 -16l-44 -94l10 -494q64 -6 93 -22t33 -37q1 -4 1 -9q0 -17 -12 -34q-15 -22 -37 -42t-45 -36t-35 -22l14 -778q2 -38 -23 -45t-56 6t-58 40t-33 55l-28 686l-298 -6q-4 -4 -6 -44t-3 -98t-2 -128t-1 -135v-118q0 -53 2 -77q4 -46 13 -84q4 -16 4 -33q0 -22 -7 -45 q-8 -29 -33 -29h-2q-27 1 -57 19t-54 48t-26 60l-16 696q-2 24 -33 41t-68 35t-65 42q-24 21 -24 53q0 58 32 64z" />
<glyph unicode="I" horiz-adv-x="308" d="M72 1656q-1 14 -1 26q0 56 22 86q24 32 53 32q4 0 8 -1q34 -5 62 -49q23 -36 23 -100q0 -14 -1 -28l20 -1440q3 -18 3 -38q0 -23 -4 -47q-7 -45 -27 -75t-54 -34h-6q-32 0 -78 38z" />
<glyph unicode="J" horiz-adv-x="780" d="M20 118q-4 28 -4 54q0 55 17 103q25 71 79 129t119 109t129 99t112 98l-24 878q0 60 25 95t58 41q6 1 12 1q26 0 51 -21q30 -26 40 -86l-4 -852q50 28 71 41t37 23t39 23t75 41q10 2 28 -1t31 -20q16 -21 16 -59q0 -31 -17 -80l-260 -170l-8 -12q6 -82 14 -167t15 -172 t10 -174q1 -29 1 -57q0 -57 -4 -112q-14 -100 -54 -147t-94 -56q-16 -3 -32 -3q-40 0 -85 16q-63 22 -123 61t-110 87t-78 94q-70 110 -82 196zM198 188v-16q0 -87 40 -162q44 -82 118 -146q38 -26 66 -26q7 0 13 2q31 8 47 37t21 68q4 28 4 51q0 9 -1 18l-38 442 q-36 -22 -79 -47t-82 -57t-69 -73t-40 -91z" />
<glyph unicode="K" horiz-adv-x="896" d="M-8 779q-4 13 -4 27q0 27 16 57q24 45 112 93l-18 750q-1 6 -1 11q0 29 18 54q21 29 50 23t56 -60t35 -182l10 -568q140 128 263 342t259 486q44 -22 66 -60t26 -82q1 -12 1 -23q0 -32 -8 -64q-11 -43 -35 -73l-458 -688q72 -46 143 -119t138 -166t126 -202t107 -225 q20 -44 20 -75q0 -9 -2 -17q-8 -34 -31 -47t-50 -10t-37 21q-22 24 -36 67t-34 99t-49 122t-80 138t-128 144t-191 142q0 -20 -2 -73t-7 -124t-10 -150t-10 -150t-9 -125t-4 -72q-12 -20 -38 -37t-52 -21q-6 -1 -11 -1q-19 0 -35 11q-20 14 -20 58q6 68 14 151t13 170t7 170 v41q0 60 -4 112q-34 22 -69 54t-47 71z" />
<glyph unicode="L" d="M43 38q-2 16 -2 32q0 29 6 57q9 45 29 82t42 53q28 182 30 367v57q0 155 -9 305q-11 177 -26 340t-21 299q-4 26 12 53t39 38q10 5 20 5q13 0 27 -8q24 -14 36 -74q28 -142 45 -313t23 -355q3 -79 3 -158q0 -106 -5 -212q-8 -186 -30 -356q18 18 55 28t84 10t99 -11 t100 -35t86 -61t56 -91q-2 -18 -11 -35t-22 -28t-28 -14t-27 5q-106 90 -178 114q-44 15 -81 15q-23 0 -42 -6q-51 -15 -85 -55t-63 -76t-58 -54q-11 -7 -24 -7q-20 0 -45 17q-30 28 -35 72z" />
<glyph unicode="M" horiz-adv-x="1340" d="M72 82l172 1400q22 140 71 195q44 50 94 50q5 0 11 -1q56 -6 108 -62t78 -138q2 -14 9 -87t14 -176t16 -221t16 -222t13 -177t8 -87q68 310 124 529t103 363t87 222t77 105q24 18 48 18q12 0 25 -5q36 -14 76 -52l66 -1676q3 -9 3 -17q0 -16 -12 -30q-19 -21 -48 -30 q-14 -5 -29 -5l-29 5q-29 9 -41 43l-50 1442q-6 -8 -12 -20t-19 -54t-34 -125t-56 -233t-85 -377t-120 -557q-6 -42 -25 -59t-47 11t-60 114t-63 251t-59 422t-44 627q-44 -326 -74 -559t-51 -392t-33 -256t-23 -151t-21 -75t-24 -29q-12 -6 -40 -1t-55 15t-47 27t-18 35z " />
<glyph unicode="N" horiz-adv-x="1088" d="M81 691q11 273 15 454q3 145 3 239v44q-1 102 -4 155t-7 71t-4 32v10q0 38 29 55q28 16 66 16h12q45 -3 89 -26t64 -59q12 -24 14 -51t4 -56t4 -57t14 -54q88 -292 147 -490t99 -326t65 -200t44 -112t37 -62t46 -50q22 -48 29 -9q6 34 6 113v24q-1 98 -7 238t-11 294 q-4 128 -4 255v51q1 152 12 272t38 194q26 70 70 70h5q60 -4 67 -44q2 -12 2 -26q0 -31 -11 -67q-16 -53 -40 -108t-24 -87l34 -1206q-8 -24 -16 -67t-23 -80t-41 -58q-13 -10 -30 -10q-18 0 -42 11q-100 40 -168 122t-115 190t-79 233t-58 250t-53 242t-65 209l-14 -4 q-12 -272 -22 -465t-18 -324t-14 -209t-11 -120t-7 -57t-4 -19q-12 -34 -38 -45q-20 -9 -41 -9q-6 0 -12 1q-27 3 -47 16q-18 12 -18 26q0 155 16 398t17 272z" />
<glyph unicode="O" horiz-adv-x="884" d="M44 619q-3 58 -3 117q0 95 8 192q13 156 43 302t76 259t106 180q58 65 128 65h4q120 -4 207 -89t141 -218t77 -299q17 -119 17 -240q0 -47 -3 -95q-9 -169 -48 -325t-108 -269t-168 -166q-59 -32 -127 -32q-47 0 -98 15q-80 24 -133 110t-82 213t-37 280zM187 705v-14 q0 -119 16 -220q17 -107 53 -182t92 -99q35 -9 66 -9q50 0 87 24q61 39 101 134t63 244t41 345q-2 90 -17 190t-41 187t-62 153t-79 89q-19 10 -40 10q-26 0 -54 -15q-51 -28 -105 -128q-38 -88 -65 -207t-41 -247t-15 -255z" />
<glyph unicode="P" horiz-adv-x="814" d="M-184 1586q4 10 16 19t32 25q68 52 134 74q54 18 112 18q13 0 26 -1q72 -5 153 -32t179 -73q126 -58 198 -125t100 -136q21 -52 21 -104q0 -17 -2 -34q-9 -69 -42 -133t-85 -119t-110 -97q-26 -18 -57 -32t-63 -24l-64 -20q-32 -10 -58 -18q0 -14 1 -59t1 -107v-132v-131 q0 -61 -1 -106t-3 -57q-4 -38 -10 -78t-23 -67t-47 -35q-7 -2 -15 -2q-27 0 -67 20q-34 16 -43 36t-6 40t12 38t13 34q10 58 14 152t4 197t-5 201t-11 164q-29 44 -29 87q0 50 23 89l-22 464l-4 12q-4 2 -9 2t-5 -2q-12 -6 -26 -19t-27 -28t-23 -28t-14 -19q-16 -4 -39 2 t-45 18t-40 28t-26 34q-12 26 -17 40q-3 8 -3 14t2 10zM278 1412l28 -476h12q84 28 143 87t111 131q41 64 41 119q0 60 -32 112q-29 47 -77 81t-93 52t-79 19h-4q-30 0 -32 -15z" />
<glyph unicode="Q" horiz-adv-x="936" d="M40 552q-2 28 -2 61q0 49 4 110q6 101 21 213t39 225t53 208t63 161t72 86q74 94 152 125q41 16 80 16q35 0 69 -13q71 -28 131 -111t100 -215t55 -310q7 -81 7 -170q0 -107 -10 -226q-6 -116 -15 -197t-30 -150t-62 -137t-113 -156q-2 -4 -4 -21t-2 -21q2 -58 5 -106 t9 -94t15 -94t25 -104q16 -66 46 -81q15 -8 31.5 -7.5t34.5 7.5q36 15 77 50t82 71t79 62q33 23 61 23q4 0 9 -1q8 -15 8 -33q0 -15 -6 -33q-12 -38 -35 -75t-51 -68t-46 -45q-8 -6 -31 -22t-48 -32t-49 -30t-32 -20q-42 -10 -61 -12h-5q-18 0 -46 12q-58 26 -111 74 t-67 114l-74 366q-21 -1 -41 -1q-118 0 -192 41q-87 48 -133 133t-57 196q-7 72 -7 147q0 42 2 84zM206 573q0 -129 10 -238t30 -175q8 -16 22 -28t30 -22q4 -2 15 -6t15 -4q78 0 109 24q21 17 21 60q0 19 -4 44q-2 14 -9 51t-15 78t-16 78t-12 51q4 18 25 32t47 20t51 3 t39 -19q16 -20 32 -48t30 -58t23 -60t11 -54q22 50 40 147t29 218t13 253v44q0 108 -8 209q-10 121 -34 218t-67 147q-36 42 -85 42q-10 0 -20 -2q-62 -10 -148 -104q-46 -50 -80 -149t-55 -223t-30 -262t-9 -267z" />
<glyph unicode="R" horiz-adv-x="810" d="M33 85q3 15 12 30t13 33q14 52 24 145t17 196t9 199q1 48 1 86.5t-1 67.5q-35 54 -35 99q0 43 33 79q-6 139 -6 244v51q2 121 8 201t16 124t20 66t20 26t16 4q2 0 11 -3t20 -8t20 -9t13 -4q138 104 252 109h14q104 0 168 -72q68 -77 81 -228q2 -26 2 -54q0 -133 -51 -305 q-46 -90 -99 -179t-133 -155q40 -76 89 -166t92 -179t74 -171t36 -143q1 -10 1 -18q0 -48 -23 -77t-78 -29q-10 0 -21 1q-20 26 -34 83t-31 130t-40 152t-58 149t-87 121t-128 69q-2 -8 -4 -49t-5 -99t-6 -124t-7 -123t-6 -98t-4 -49q-6 -38 -11 -85t-20 -82t-46 -45 q-6 -2 -14 -2q-29 0 -77 30q-28 18 -34 32q-4 9 -4 19q0 5 1 10zM258 1040q4 -36 19 -60t53 -32q68 12 119 66t84 128t48 158q13 74 13 140v17q-2 73 -23 125t-61 61q-7 2 -14 2q-36 0 -86 -36q-60 -43 -138 -159q0 -12 -1 -47t-3 -79t-4 -93t-3 -90t-2 -70t-1 -31z" />
<glyph unicode="S" horiz-adv-x="928" d="M6 243q-4 14 -4 27q0 26 16 48q0 2 13 7t28 11t28 10t15 4q36 -84 106 -139t149 -78q59 -17 114 -17q19 0 39 2q74 8 119 48q47 42 47 115q0 70 -62 171q-62 62 -134 142t-144 169t-138 181t-116 182q-51 90 -51 178q0 16 2 33q11 105 70 191t154 145t202 74q30 4 60 4 q77 0 153 -27q106 -38 190 -144q17 -23 17 -54q0 -6 -1 -12q-4 -38 -22 -68t-43 -43t-45 13q-28 66 -77 105t-105 51q-27 6 -54 6q-30 0 -60 -7q-58 -13 -106 -51q-90 -58 -128 -124q-34 -60 -34 -124v-13q4 -71 50 -148t124 -157q12 -14 39 -46t62 -75t73 -90t72 -90 t61 -75t41 -44q80 -102 105 -187q16 -53 16 -100q0 -28 -6 -53q-15 -68 -63 -119t-111 -83t-134 -44q-43 -7 -83 -7q-27 0 -52 3q-26 2 -71 21t-95 49t-98 69t-82 79t-46 81z" />
<glyph unicode="T" horiz-adv-x="970" d="M-66 1600q0 24 38 56q4 4 18 10t20 6q36 -1 68 -1h30q44 1 87 2t90 5t105 8q2 54 35 87t75 37h10q36 0 71 -24q39 -28 55 -92q50 -2 93 -2t86 -3t89 -13t102 -30q24 -10 37 -34q15 -28 15 -57q0 -20 -8 -37q-10 -20 -32 -22q-42 10 -99 21t-119 16q-26 2 -51 2 q-35 0 -70 -4q-59 -7 -105 -31l-2 -1442q0 -16 -8 -38t-21 -40t-31 -26q-6 -3 -12 -3q-13 0 -28 11q-10 8 -23 19t-23 32t-16 57q-4 22 -4 52q0 20 2 44l-14 1344l-4 14l-314 -6q-32 4 -66 15t-55 27t-21 40z" />
<glyph unicode="U" horiz-adv-x="918" d="M28 1284q2 146 10 261t28 167q16 36 46 44q13 4 27 4l33 -6q30 -10 53 -38t27 -64q-24 -52 -38 -146t-21 -210t-7 -247t4 -259t11 -244t15 -204t15 -138t11 -46q6 2 19 12t27 22t27 23t17 17q44 48 91 97t88 103t73 114t48 130q2 38 9 120t15 184t16 214t13 210t5 172 t-6 102q22 46 62 59q21 7 41 7q18 0 35 -6q36 -12 57 -46q13 -20 13 -46q0 -17 -6 -36q-40 -298 -55 -536t-16 -426v-37q0 -165 8 -294q9 -143 15 -249q2 -26 19 -47t26 -39q4 -7 4 -15q0 -10 -8 -20q-13 -17 -73 -31h-14q-10 6 -33 17t-27 15q-48 36 -66 77t-24 83t-8 84 t-16 84q-10 -12 -36 -41t-55 -60t-55 -59t-38 -40t-32 -29t-44 -32t-50 -24t-52 -7q-42 4 -78 27t-63 56t-42 72t-17 73q-2 62 -7 182t-10 269t-9 312q-3 109 -3 210q0 50 1 99z" />
<glyph unicode="V" horiz-adv-x="1054" d="M32 1638q-7 17 -7 32q0 16 8 30q15 26 42 37t61 2t58 -45q16 -32 42 -134t57 -241t66 -299t70 -309t68 -271t59 -184h14q22 62 50 175t56 251t55 289t46 292t28 260q5 71 5 126q0 36 -2 65q30 42 58 57q18 10 35 10q9 0 17 -3q24 -8 40 -35t20 -65v-23q0 -77 -11 -179 q-13 -118 -34 -255t-48 -286t-56 -295t-58 -281t-53 -245q-10 -50 -44 -91t-76 -57q-20 -8 -41 -8l-43 9q-42 17 -68 81q-30 84 -63 212t-68 279t-72 313t-73 311t-71 273t-67 202z" />
<glyph unicode="W" horiz-adv-x="1306" d="M37 1068q3 174 12 331t19 267q8 38 35 49t57 4t55 -32t29 -59q-10 -72 -17 -175t-12 -223t-5 -250t4 -253t15 -231t28 -188t43 -121q21 -33 47 -33q6 0 13 2q9 -2 17 -2q41 0 69 56q34 68 55 184t30 263t13 290q3 114 3 216v50q-1 123 -1 191q-1 14 -1 27q0 41 10 68 q13 35 34 49t47 13t48 -13t36 -30t10 -36q-4 -80 -8 -207q-3 -85 -3 -177q0 -46 1 -95q2 -145 12 -292t32 -267t59 -197t93 -81h5q50 0 85 73q36 77 56 203t26 286q4 107 4 214q0 54 -1 107q-3 161 -14 307t-25 248q0 56 32 95t71 52q15 5 30 5q22 0 43 -12q34 -20 38 -80 q-14 -140 -14 -288t4 -293t7 -284q1 -52 1 -102q0 -83 -3 -159q-5 -122 -23 -223t-57 -171t-103 -105q-50 -27 -120 -27q-20 0 -42 2q-14 -2 -26 -2q-37 0 -68 13q-42 17 -77 44t-61 58t-46 55q-14 4 -31 -19t-41 -54t-55 -65t-71 -53q-38 -18 -85 -18h-5q-50 1 -112 41 q-66 28 -107 131t-63 250t-28 323q-4 117 -4 234q0 58 1 116z" />
<glyph unicode="X" horiz-adv-x="986" d="M16 94l78 122q92 244 143 382t76 206t30 86t3 24q-24 78 -55 170t-61 185t-52 183t-28 168q-2 12 -2 22q0 28 16 43q22 21 53 22h3q30 0 62 -17q34 -18 50 -52q-2 -32 -2 -66q0 -100 22 -208q30 -144 96 -280q44 68 82 140t75 144t78 140t93 126q38 46 77 48h6 q35 0 55 -21q21 -22 21 -55q0 -37 -39 -68l-340 -678q2 -16 25 -73t57 -134t74 -164t76 -163t63 -132t35 -68q36 -26 40 -50t-12 -41t-46 -27t-60 -10t-54 12t-30 40q-4 4 -23 51t-46 113t-59 141t-60 138t-50 104t-30 37l-240 -580q-10 -48 -40 -61q-17 -7 -35 -7 q-14 0 -28 4q-33 10 -61 39t-36 65z" />
<glyph unicode="Y" horiz-adv-x="994" d="M46 682q-1 52 -1 104q0 104 3 209q4 157 15 289t28 228t41 128q14 24 33 41t42 25t50 2t59 -28q-28 -64 -50 -171t-36 -238t-21 -276t-8 -286v-47q0 -116 4 -223q5 -129 17 -226t29 -153q16 -54 37 -54h2q100 80 166 191t106 239t60 265t25 271q3 84 3 162q0 47 -1 93 q-3 121 -8 217t-7 158v19q0 45 8 59q12 22 39 31q17 6 35 6q10 0 20 -2q28 -5 49 -24t23 -51l6 -1566q6 0 31 16t54 35t54 34t33 13q55 -35 55 -73q0 -44 -49 -94q-40 -41 -94 -76t-86 -59q-18 -84 -33 -166t-34 -163t-48 -163t-75 -162q-22 -36 -42 -61t-45 -36 q-16 -7 -35 -7q-10 0 -21 2q-31 6 -75 34q-50 70 -68 147q-13 55 -13 111q0 22 2 44q7 78 36 154t72 145t96 128t111 101l8 8q4 4 4 6l16 272l-2 14q-6 -14 -26 -49t-43 -74t-45 -74t-30 -47q-62 -94 -133 -143q-62 -43 -118 -43q-8 0 -16 1q-63 7 -111 78t-64 215 q-16 102 -24 243t-10 297zM474 -590q-1 -13 -1 -26q0 -52 13 -100q60 98 94 227t48 251q-44 -44 -77 -102t-53 -121t-24 -129z" />
<glyph unicode="Z" horiz-adv-x="960" d="M8 1676q-1 6 -1 12q0 21 11 38q14 22 43 32q13 5 29 5q20 0 44 -7l662 6q42 -4 54 -39q8 -25 8 -53q0 -12 -1 -25q-5 -43 -20 -85t-25 -58l-602 -1352q123 -8 218 -8q28 0 54 1q112 3 186 10t115 17t59 16q60 -18 83 -54q14 -22 14 -44q0 -13 -5 -25q-14 -33 -62 -52 q-28 -11 -67 -11q-29 0 -63 6h-41q-63 0 -129 -4q-88 -6 -175 -10q-50 -2 -98 -2q-37 0 -73 1q-84 3 -158 23q-6 2 -17 18t-20 34t-14 36t1 28l648 1480l-482 -24q-25 -5 -47 -5q-26 0 -47 7q-38 12 -58 36t-24 52z" />
<glyph unicode="[" horiz-adv-x="604" d="M108 1706q156 14 239 20t116 -6t24 -43t-39 -89l-204 -10l10 -1616l208 6q66 -8 84 -45t-34 -71l-386 -38z" />
<glyph unicode="^" horiz-adv-x="838" d="M186 830l188 330q10 20 38 35t59 19t58 -7t35 -43l124 -362q-24 -24 -53 -35t-54 -10t-43 11t-22 28l-70 160l-96 -172q-16 -28 -48 -34t-61 3t-47 30t-8 47z" />
<glyph unicode="a" d="M48 384q4 76 10 180t18 219t33 233t53 222t78 185t110 125q59 40 132 40h14q82 -4 186 -72q-10 -64 -18 -173t-13 -244t-9 -281t-5 -283t-1 -252t2 -185q4 -18 4 -32q0 -30 -17 -47q-22 -22 -52 -22h-7q-34 3 -64 33t-30 88q-94 -102 -174 -116q-18 -3 -36 -3 q-58 0 -101 36q-57 47 -88 141q-26 79 -26 172q0 18 1 36zM202 302q0 -96 8 -142q4 -33 24 -33h1q21 1 50 24t62 61t61 78t48 76t24 54q16 214 29 480t17 542q-8 8 -23 8q-6 0 -13 -1q-24 -5 -50 -19t-49 -36t-33 -46q-32 -36 -57 -124t-44 -205t-31 -249t-18 -252t-6 -216z " />
<glyph unicode="b" horiz-adv-x="738" d="M40 116l20 1656q2 34 26 53t53 19t53 -21t28 -69l-26 -358q46 110 110 150q41 26 83 26q23 0 47 -8q66 -22 128 -102t104 -211t56 -309q5 -59 5 -123q0 -127 -19 -271q-8 -74 -32 -158t-61 -161t-85 -140t-105 -97q-54 -32 -114 -32h-7q-64 2 -132 56q-16 -9 -31 -9 q-24 0 -47 21q-38 34 -54 88zM210 168q39 -54 81 -54q5 0 10 1q47 7 92 63t83 150t64 208t37 239q6 62 5.5 122.5t-5.5 119.5q-11 117 -47 216t-104 163q-13 4 -26 4q-36 0 -63 -30q-37 -40 -61 -117t-38 -183t-20 -220t-7 -227q0 -56 -0.5 -108.5t0.5 -99.5q1 -95 1 -161 t-2 -86z" />
<glyph unicode="c" horiz-adv-x="682" d="M39 605q1 135 17 272t47 258t74 215t97 144q49 45 106 45h11q63 -5 133 -83q33 -73 33 -124q0 -10 -1 -20q-8 -56 -37 -71q-9 -5 -19 -5q-22 0 -48 22q-38 32 -56 124h-6q-30 0 -56 -37q-28 -41 -51 -112t-40 -165t-29 -196t-17 -207q-4 -88 -4 -167v-31q1 -93 9 -166 t22 -113q18 -32 45 -56q21 -19 53 -19q9 0 20 2q46 7 114 58t170 169q28 18 44 6t23 -36q6 -21 6 -44q0 -31 -7 -46q-44 -76 -107 -143t-139 -94q-37 -13 -76 -13q-42 0 -86 15q-86 29 -176 143q-36 92 -53 216q-16 117 -16 244v15z" />
<glyph unicode="d" horiz-adv-x="890" d="M41 400q3 100 17 213t37 227t55 220t69 192t78 143t83 71q72 25 121 25q14 0 26 -2q55 -9 86 -46t45 -97t24 -128l-36 638q8 14 35 26t56 13h4q26 0 50 -11q25 -12 29 -42q-14 -236 -14 -467t1 -459v-91q0 -182 -3 -360q-4 -223 -24 -441q-6 -8 -25 -22t-41 -20 q-8 -2 -16 -2q-14 0 -29 7q-23 11 -37 53l28 232q-30 -34 -69 -80t-86 -89t-99 -75t-106 -40q-13 -2 -26 -2q-41 0 -83 19q-55 25 -107 97q-26 42 -36 120q-8 60 -8 133q0 22 1 45zM209 241q5 -63 23 -87q17 -24 41 -24q12 0 26 6q41 18 84 63t81 107t62 116q30 54 45 145 t18 195q1 28 1 57q0 76 -6 153q-8 106 -23 190t-36 135q-19 46 -40 46q-2 0 -5 -1q-28 -2 -58 -49t-59 -123t-54 -175t-46 -204t-35 -209t-19 -191q-2 -44 -2 -81t2 -69z" />
<glyph unicode="e" horiz-adv-x="636" d="M37 687v46q0 91 3 172q4 101 6 161q2 42 10 101t25 119t44 116t66 93t91 50q17 4 36 4q38 0 84 -17q72 -42 111 -105t58 -138t25 -156t12 -157q-18 -20 -56 -20q-8 0 -16 1q-50 5 -108 19t-114 28q-39 10 -68 10q-12 0 -22 -2q-14 -34 -22 -99t-12 -144t-4 -165t3 -160 t8 -128t11 -72q18 -48 46 -69t63 -24q8 -1 16 -1q28 0 58 8q39 10 76 21t70 20t57 5q17 -13 17 -31q0 -5 -1 -10q-6 -25 -12 -41q-12 -34 -56 -59t-98 -40t-107 -18q-14 -1 -27 -1q-34 0 -56 6q-68 0 -110 63t-65 160t-32 217t-10 237zM248 1176q10 -12 33 -22t51 -18 t56 -11q17 -2 31 -2q10 0 19 1q0 8 -1 29t-2 45t-3 45t-2 31q-14 72 -33 104t-40 34h-3l-39 -21q-21 -23 -37 -58t-25 -77q-6 -29 -6 -56q0 -12 1 -24z" />
<glyph unicode="f" horiz-adv-x="590" d="M-61 795q7 29 29 39t57 11t83 9q-1 35 -1 68q0 206 32 353q37 171 104 277t156 152t187 46q26 -12 37 -35q10 -21 10 -43q0 -26 -14 -50q-13 -22 -33 -34q-106 -20 -169 -101t-95 -190t-42 -228t-10 -217q92 -2 145 -3t78 -1t32 -2t11 -8q24 -4 40 -23t20 -41t-2 -41 t-26 -21l-306 12l28 -720q-8 2 -21 -3t-32 -10q-14 -4 -30 -4q-6 0 -13 1q-24 2 -54 20q-1 11 -1 24q0 26 3 63q4 55 5 138v21q0 76 -6 179q-7 117 -31 275q0 6 -24 4t-53 -7t-56 -7t-35 6q-6 36 -6 62q0 17 3 29z" />
<glyph unicode="g" horiz-adv-x="716" d="M39 623v28q0 97 6 191q7 108 19 197t25 153t25 86q20 64 58 119t87 90t105 42q10 1 20 1q46 0 90 -27q54 -33 102 -113t82 -220q6 -424 7 -722v-143q0 -205 -2 -354q-3 -199 -8 -316t-11 -182t-12 -91t-10 -44q-10 -54 -33 -117t-62 -113t-94 -73q-26 -11 -56 -11 q-34 0 -73 14q-90 26 -139 67t-66 79q-10 22 -10 41q0 13 5 25q12 28 46 30q34 -32 70 -62t71 -45q24 -10 46 -10q10 0 21 2q32 7 60 53q26 46 48 103t28 107l66 762q-26 -44 -52 -80t-58 -60t-74 -36q-32 -9 -72 -9q-14 0 -28 1q-64 18 -107 78t-70 148t-38 194t-12 217z M180 797q-1 -27 -1 -56q0 -113 13 -239q16 -158 58 -330q23 -24 46 -24q5 0 11 1q29 7 55 33t48 65t37 74t21 59t2 22q2 2 5 50t7 119t8 154t8 156t8 126t8 63q-6 76 -20 128t-33 85t-39 51t-36 26q-10 4 -20 4q-24 0 -49 -25q-35 -35 -64 -110t-49 -185t-24 -247z" />
<glyph unicode="h" horiz-adv-x="788" d="M34 82l64 1636q4 24 26 39t50 17h8q24 0 47 -10q27 -12 42 -39q12 -21 12 -53q0 -9 -1 -18q-4 -44 -40 -106l-36 -532q32 70 59 142t63 133t88 104t130 57q8 2 16 2q44 0 68 -58q28 -68 41 -188t16 -275t9 -318t19 -317t47 -272q-32 -28 -64 -30h-10q-26 0 -48 9 q-26 11 -43 29t-19 34l-66 1124q-12 18 -41 -14t-62 -85t-64 -112t-45 -95q-14 -34 -27 -111t-23 -171t-18 -194t-12 -183t-6 -138t2 -57q-4 -28 -34 -34q-11 -2 -23 -2q-20 0 -41 6q-34 10 -61 31t-23 49z" />
<glyph unicode="i" horiz-adv-x="380" d="M56 503q2 145 10 302t18 315q8 132 8 249v47q6 42 27 59t45 18t46 -9t34 -22q4 -59 4 -127q0 -45 -2 -94q-4 -123 -10 -253t-11 -257q-4 -91 -4 -172q0 -32 1 -63q2 -108 15 -186t43 -109q16 -17 39 -17q19 0 41 12q50 26 126 126q14 12 27 -1t19 -38q4 -19 4 -40v-15 q-2 -30 -20 -52q-2 -22 -24 -53t-60 -60t-88 -50t-106 -21q-74 4 -114 73t-55 181q-13 99 -13 223v34zM106 1855q0 28 25 48q20 15 59 15q15 0 32 -2q30 -4 54 -33t29 -62q1 -6 1 -12q0 -25 -18 -44q-14 -15 -45 -15q-16 0 -37 4q-44 8 -71 37q-29 31 -29 64z" />
<glyph unicode="j" horiz-adv-x="410" d="M-355 -744q3 88 28 187t70 202t105 195t131 167t147 119l-18 1286q6 38 32 61t57 28t59 -11t38 -58v-1228q28 4 58 18t40 10q14 -6 23 -28t11 -49v-13q0 -20 -4 -41q-6 -27 -20 -45l-134 -78q-18 -180 -46 -342t-71 -293t-103 -224t-144 -135q-25 -3 -48 -3 q-62 0 -104 24q-58 33 -84 98q-23 58 -23 135v18zM-172 -796q0 -70 19 -73h3q18 0 46 40q30 43 65 123t66 178t54 203t27 197q-62 -52 -116 -132t-93 -172t-58 -188q-14 -73 -14 -137q0 -20 1 -39zM51 1743q0 29 24 52q27 27 71 35q10 2 20 2q32 0 60 -20q24 -18 35 -52 q6 -19 6 -35q0 -14 -4 -26q-9 -27 -43 -39q-10 -4 -23 -4q-31 0 -79 20q-67 26 -67 67z" />
<glyph unicode="k" horiz-adv-x="746" d="M36 76l50 1676q4 28 25 48t46 26q9 2 18 2l32 -7q25 -11 37 -47q-2 -40 -7 -101t-10 -131t-10 -143t-7 -136t-2 -112t6 -71q36 6 88 52t101 115t87 148t48 151q14 36 50 41q7 1 14 1q28 0 55 -16q33 -20 50 -62q7 -17 7 -37q0 -28 -14 -61q-28 -66 -70 -120t-91 -100 t-100 -89t-97 -91q18 -14 39 -80t43 -157t47 -194t51 -192t51 -151t51 -72q10 -4 19 -1t17 6t17 5t19 -4q33 -15 33 -44q0 -35 -30 -65q-27 -27 -73 -40q-16 -5 -33 -5q-31 0 -63 16q-22 10 -46 77t-49 161t-51 202t-54 202t-58 161t-60 79l-24 -880q-18 -48 -52 -48 q-24 0 -56 24q-10 8 -30 26q-15 14 -15 29q0 4 1 9z" />
<glyph unicode="l" horiz-adv-x="312" d="M51 526q-1 51 -1 104q0 124 5 259q7 193 17 380t17 353q4 106 4 191q0 49 -1 91q6 42 27 59t45 18h4q22 0 42 -9q22 -10 34 -22q5 -67 5 -154q0 -44 -1 -92q-4 -146 -13 -314t-19 -343t-16 -332q-4 -105 -4 -195q0 -45 1 -87q3 -125 21 -192q17 -64 51 -64h3q36 3 98 105 q14 12 30 -3t25 -41t9 -58t-18 -54q-106 -130 -175 -147q-14 -4 -28 -4q-50 0 -82 51q-41 64 -59 197t-21 303z" />
<glyph unicode="m" horiz-adv-x="1372" d="M54 80l12 1310q8 64 31 92t48 31t44 -13t19 -40l24 -228q40 72 77 118t68 73t58 38t45 15q25 3 46 3q40 0 68 -10q42 -15 66 -49t35 -85t21 -115q22 74 63 138t92 112t108 73q48 21 92 21q9 0 18 -1q53 -5 97 -45t72 -122q-18 -346 -20 -574v-88q0 -168 6 -278 q8 -138 25 -200t37 -75t40 8t38 49q26 -10 31 -40q1 -8 1 -16q0 -23 -10 -50q-14 -36 -45 -71t-79 -53h-15q-29 0 -54 6q-31 8 -54 48t-39 126t-23 241q-5 108 -5 256q0 63 1 134q3 235 17 577q-21 4 -40 4q-69 0 -115 -45q-59 -57 -93 -165t-48 -252t-20 -298t-10 -307 t-18 -279q-32 -26 -56 -30t-41 4t-29 21t-20 21q-4 18 -6 85q-1 45 -1 103v61q1 97 2 213q0 58 0.5 116.5t-0.5 117.5q-1 118 -5 227t-12 192t-22 128t-36 35q-86 -34 -144 -125t-95 -214t-56 -266t-27 -282q-7 -124 -7 -233v-27q1 -121 5 -199q-4 -1 -10 -1q-12 0 -30 3 q-28 4 -56 13t-49 25t-17 38z" />
<glyph unicode="n" horiz-adv-x="828" d="M60 8l8 1456q4 30 28 52t52 27t50 -8t24 -51v-34q0 -50 -4 -92q-6 -56 -6 -126q42 98 75 157t63 94t58 53t58 30q18 4 34 4q26 0 47 -10q35 -16 60 -47t39 -71t20 -78q18 -100 24 -224t8 -251t5 -250t13 -220t33 -160t65 -71q19 -19 19 -43q0 -32 -23 -66 q-18 -27 -45 -45t-51 -12q-52 22 -83 99t-47 185t-21 238t-7 258t-4 245t-12 200t-30 121q-12 22 -29 22q-13 0 -29 -12q-72 -76 -118 -178t-72 -217t-36 -239t-12 -246q-1 -61 -1 -120.5t1 -116.5t1 -110.5t-1 -102.5q-14 -44 -32 -63t-38 -20h-3q-19 0 -38 12 q-21 13 -43 31z" />
<glyph unicode="o" horiz-adv-x="724" d="M49 600q3 136 15 260t30 224t34 148q18 52 45 111t64 106t87 75q39 22 87 22q14 0 29 -2q20 -2 29 -13t12 -26t5 -31t8 -26q20 -30 46 -40t51 -21t45 -33t26 -78q4 -70 8 -171q3 -67 3 -141q0 -37 -1 -75q-2 -115 -11 -236t-31 -232t-57 -204t-88 -152t-128 -76 q-22 -5 -45 -5q-58 0 -128 30q-54 32 -84 122t-42 209q-10 95 -10 201q0 27 1 54zM199 464v-24q0 -81 6 -142q7 -70 23 -96q8 -36 36 -40q8 -1 16 -1q21 0 44 7q32 10 60 29t38 31q32 76 55 179t35 217t15 228q1 31 1 61q0 80 -6 153q-8 100 -25 176t-43 112q-22 17 -42 17 q-17 0 -32 -12q-34 -27 -63 -94t-51 -165t-37 -207t-22 -221t-8 -208z" />
<glyph unicode="p" horiz-adv-x="842" d="M76 -564l18 1938q60 110 148 156q70 36 141 36q19 0 37 -2q90 -12 170 -77t124 -177q30 -48 50 -143t27 -214q4 -60 3.5 -122.5t-3.5 -129.5q-7 -133 -31 -257t-66 -228t-105 -167t-147 -75q-13 -2 -27 -2q-74 0 -167 54l2 -582q-10 -24 -39 -40t-59 -19q-6 -1 -12 -1 q-23 0 -41 10q-23 12 -23 42zM252 214q52 -72 102 -83q12 -3 23 -3q37 0 71 28q44 36 80 111t61 174t37 217q8 83 8 167q0 35 -1 70q-5 119 -28 235t-69 212q-62 64 -111 68q-7 1 -13 1q-41 0 -70 -23q-34 -26 -52 -64t-18 -58q0 -10 -2 -89t-4 -193t-5 -244t-5 -244 t-3 -193t-1 -89z" />
<glyph unicode="q" horiz-adv-x="848" d="M34 338v143q0 91 6 202t18 231t36 232t59 205t86 149t121 64q9 1 18 1q63 0 142 -49q4 -4 18 -21t18 -17q12 -6 20 -5t15 1t15 -3t22 -19q18 -22 26 -111t8 -213t-4 -265t-10 -266t-9 -216q-2 -55 -2 -85q0 -20 1 -30q66 -34 125 -108t103 -168t71 -198t29 -199v-14 q0 -87 -23 -157q-25 -76 -83 -116q-50 -32 -90 -50q-22 -10 -43 -10q-16 0 -31 6q-34 14 -64 63t-57 150t-53 260t-54 391q-62 -84 -139 -116q-43 -18 -83 -18q-31 0 -61 11q-67 25 -111 110q-40 78 -40 210v25zM205 503q1 -121 6 -209t7 -116q33 -55 66 -55h1q33 1 61 38 t48 101t30 134q0 2 3 68t6 166t8 219t9 224t8 181t6 94q4 24 -10 42q-8 11 -23 11q-10 0 -23 -5q-66 -46 -107 -146t-63 -226t-28 -263q-5 -117 -5 -223v-35zM614 78q0 -36 5 -94t14 -125t22 -136t28 -125t32 -93t35 -41q40 50 50 123q4 26 4 53q0 49 -12 103 q-18 83 -63 170t-115 165z" />
<glyph unicode="r" horiz-adv-x="682" d="M50 1105q0 143 5 260t17 183q28 22 47 22t51 -4q28 4 31 -30q1 -15 1 -32q0 -23 -2 -50q-6 -74 -6 -107q0 -42 16 -65q6 18 35 52t71 73t91 74t97 55q44 18 81 18h8q41 -2 67 -38q20 -27 20 -49q0 -9 -3 -17q-11 -28 -37 -47t-55 -28t-37 -11q-96 -22 -157 -85t-96 -156 t-50 -212t-16 -254v-45q0 -114 4 -235q5 -145 11 -289q-6 -36 -28 -58t-48 -28q-10 -2 -20 -2q-15 0 -28 5q-22 9 -30 37q-6 72 -13 194t-13 267t-10 302t-4 300z" />
<glyph unicode="s" horiz-adv-x="720" d="M85 1410q15 52 55 82t99 39q33 5 68 5q27 0 56 -3q65 -7 127 -29t110 -56q6 -4 20 -17t29 -30t28 -34q17 -22 17 -36q0 -9 -8 -12q-10 -5 -38 3q-36 14 -77 27t-82 21q-36 7 -74 7h-9q-42 -1 -82 -15q-20 -10 -28 -36t-9 -56t4 -59t9 -47q6 -32 23 -96t40 -142t51 -164 t56 -164t53 -141t45 -95q18 -32 37 -72t33 -81t18 -79q1 -10 1 -18q0 -27 -9 -48q-12 -28 -43 -43q-24 -12 -66 -12q-11 0 -23 1q-70 6 -150 41t-141 88t-89 116q-12 28 -12 55q0 35 20 68q32 -10 67 -44t73 -70t81 -62q31 -19 65 -19q13 0 26 3l-310 910q-4 6 -11 30 t-15 54t-16 58t-10 42q-15 48 -15 86q0 24 6 44z" />
<glyph unicode="t" horiz-adv-x="630" d="M-34 1513q6 19 38 25q8 2 38 -1t63 -6t59 -6t26 1l-2 202q14 60 42 79q18 12 35 12l21 -4q28 -11 49 -48t21 -93l-6 -142q62 -4 99 -4t69 1t66 3t92 6q36 -4 49 -23q11 -16 11 -35q0 -24 -16 -49q-14 -21 -28 -29l-352 -18q0 -28 -1 -98t-4 -166t-5 -207t-2 -222t1 -210 t6 -171t14 -106t25 -14l112 118q24 -16 36 -34t15 -35t0 -32t-9 -23q6 8 -1 -6t-25 -38t-43 -52t-54 -48t-59 -24q-4 -1 -8 -1q-25 0 -48 21q-48 42 -72 141t-35 227q-10 117 -10 249v24q1 145 4 280t3 245t-8 170q-12 6 -29 8t-35 4t-35 4t-29 10q-24 12 -45 33t-30 42 q-5 13 -5 24q0 8 2 16z" />
<glyph unicode="u" horiz-adv-x="908" d="M54 1450q0 26 18 39t44 15t55 -6t54 -23t39 -38t10 -49q-14 -40 -20 -128t-8 -199q-1 -56 -1 -114.5t1 -119.5q2 -123 6 -236t8 -205t8 -140q14 -16 36 -30t54 -4t72 56t90 152q12 16 25 99t25 199t24 249t22 250t18 203t12 108q20 18 53 34t66 17h3q31 0 54 -17 q24 -18 26 -66q-22 -72 -36 -188t-22 -255q-7 -124 -7 -255v-33q1 -149 10 -288t27 -256t48 -189q12 -12 12 -23q0 -5 -2 -9q-8 -14 -28 -22q-18 -7 -40 -7h-6q-26 1 -44 13q-76 48 -104 121t-32 167q-4 4 -4 12q-10 -12 -37 -44t-57 -67t-58 -65t-40 -42q-52 -54 -108 -54 h-8q-60 4 -110 46t-82 111t-30 139z" />
<glyph unicode="v" horiz-adv-x="872" d="M4 1448q20 60 53 77q18 9 35 9l31 -7q33 -15 58 -52t31 -85q8 -42 25 -128t39 -193t47 -225t50 -224t47 -191t40 -125l234 1162q14 34 48 52q27 14 51 14q7 0 13 -1q30 -5 44 -38q5 -12 5 -28q0 -30 -17 -75l-280 -1378q-56 -30 -95 -30q-60 0 -79 72q-32 76 -66 189 t-68 244t-67 270t-64 268t-60 239t-55 184z" />
<glyph unicode="w" horiz-adv-x="1198" d="M82 414q0 78 2 212t6 335t12 489q18 32 45 42t51 2t40 -34t16 -66q-16 -294 -25 -498t-11 -336q-1 -53 -1 -96q0 -65 2 -108q3 -72 11 -106t20 -40t26 -4q28 10 68 49t81 95t76 121t51 129q2 6 4 64t4 141t4 179t4 179t4 141t4 66q12 54 46 82q31 25 59 25h6 q31 -3 47 -40q7 -16 7 -38q0 -31 -13 -75q3 -27 3 -69q0 -21 -1 -47q-2 -76 -6 -173t-7 -205q-2 -65 -2 -128q0 -42 1 -83q2 -103 11 -193t31 -150t58 -82q14 -9 31 -9q27 0 61 21q30 20 49 89t29 170t12 225q1 62 1 126t-1 130q-2 132 -8 263t-10 245q-1 7 -1 13 q0 34 19 54q22 23 50 24h3q26 0 49 -19q24 -20 26 -60q0 -166 4 -335t4 -327t-8 -297t-31 -245t-63 -171t-106 -73q-46 -6 -83 -6t-65 6q-56 12 -92 49t-60 100t-52 151q-18 -34 -52 -75t-71 -82t-75 -78t-66 -59q-28 -12 -53 -12q-18 0 -34 6q-39 14 -68 47t-45 76t-20 81 q-2 6 -4 19t-3 54t-1 119z" />
<glyph unicode="x" horiz-adv-x="940" d="M20 93q6 45 34 73l290 568q-18 66 -61 164t-92 200t-94 197t-67 155q6 46 29 67t50 26q11 2 22 2q15 0 29 -4q24 -7 30 -15q6 -12 29 -65t55 -126t67 -154t65 -149t50 -112l20 -44l294 604q12 34 37 49q23 14 47 14h3q25 -1 47 -17t30 -40q3 -10 3 -20q0 -16 -7 -36 q-12 -32 -54 -68q-16 -14 -43 -64t-59 -118t-65 -143t-61 -139t-46 -108t-20 -48l-8 -12q86 -148 157 -276t106 -224q28 -76 28 -128q0 -13 -2 -25q-9 -57 -83 -65l-304 580q-6 6 -21 2t-17 -8q-10 -10 -33 -55t-53 -106t-63 -131t-63 -131t-53 -105t-33 -54 q-36 -36 -62 -36q-6 0 -11 2q-29 10 -41 44q-8 23 -8 50q0 14 2 29z" />
<glyph unicode="y" horiz-adv-x="950" d="M58 162q2 298 7 503t10 340t11 210t7 113t-2 51t-13 23q-15 32 -15 56q0 7 1 14q6 28 27 40t49 10t55 -20t45 -51t16 -79q2 -36 2 -78t-2 -91q-4 -97 -12 -205t-17 -221t-16 -220t-10 -202q-1 -26 -1 -50q0 -64 6 -113q13 -21 30 -21q12 0 27 10q35 25 76 94t85 170 t85 216t76 235t57 225t28 186q2 22 2 41q0 50 -12 78q-7 27 -7 49q0 31 14 50q19 27 44 27q6 0 12 -2q33 -8 61 -64q24 -49 24 -142v-28l42 -1132q10 -2 35 11t57 30t67 32t65 19t51 -10q25 -17 25 -62q0 -11 -6 -21q-8 -13 -18 -23l-260 -124q2 -20 5 -63t7 -99t8 -117 t7 -117t5 -99t4 -63q4 -50 5 -107v-13q0 -50 -7 -98q-8 -54 -26 -101t-51 -76t-84 -34q-8 -1 -16 -1q-46 0 -109 24q-134 98 -197 204t-73 211q-2 24 -2 49q0 80 25 158q33 102 90 191t127 161t134 120l-30 594q-8 -14 -26 -61t-42 -108t-51 -131t-51 -131t-43 -107t-27 -60 q-24 -42 -69 -97t-89 -91q-28 -24 -59 -24q-10 0 -21 3q-42 11 -77 45t-57 80q-19 39 -19 72q0 6 1 12zM496 -491q6 -69 43 -141t115 -146q34 -30 55 -30t34 19t18 53t7 69t2 68v53q-4 48 -9 128t-11 159t-11 142t-9 75q-44 -40 -88 -89t-78 -106t-54 -121q-15 -49 -15 -101 q0 -16 1 -32z" />
<glyph unicode="z" horiz-adv-x="850" d="M55 1465q-1 7 -1 14q0 9 2 16q4 13 16 24t36 25q54 -4 126 -6q48 -1 97 -1h49q74 1 146 4t126 11q36 4 73 5h7q33 0 58 -9q28 -10 43 -35q11 -18 11 -46q0 -11 -2 -25q0 -2 -3 -11t-20 -47t-53 -116t-101 -218t-164 -353t-243 -521q25 -4 52 -4q35 0 73 7q67 13 135 36 t132 52t114 51q41 20 67 20q8 0 14 -2q27 -8 34 -32q3 -9 3 -20q0 -17 -7 -36q-11 -32 -37 -54q-32 -26 -87 -56t-120 -56t-138 -47t-142 -30q-48 -6 -91 -6q-19 0 -38 1q-60 4 -100 28q-36 20 -51 45t-14 52t15 57t36 62l504 1118q-19 1 -41 1q-39 0 -87 -4q-76 -7 -155 -8 h-10q-73 0 -139 13q-70 14 -112 58q-10 26 -13 43z" />
<glyph unicode="{" horiz-adv-x="780" d="M147 687q-17 43 11 85q8 6 32 26t49 44t45 46t20 32q-38 58 -71 125t-53 137t-25 138t13 130q18 104 67 207t118 172t154 90t177 -35q20 -14 29 -38t10 -48t-6 -45t-15 -29q-86 46 -159 19t-127 -98t-82 -171t-24 -200t47 -187t131 -131q38 -46 30 -80t-38 -61t-73 -49 t-75 -44q4 -6 27 -14t51 -16t54 -14t38 -8q56 -20 66 -58t-7 -88t-51 -110t-66 -124t-54 -131t-12 -131t59 -122t157 -106q-14 -46 -44 -62t-68 -11t-79 25t-77 48q-62 48 -89 115t-30 140t12 147t37 138t47 113t41 73q-26 0 -68 23t-77 59t-52 79z" />
<glyph unicode="|" horiz-adv-x="374" d="M72 1656q-6 76 21 112t61 31t62 -49t22 -128l20 -1440q6 -40 -1 -85t-27 -75t-54 -34t-84 38z" />
<glyph unicode="}" horiz-adv-x="808" d="M95 1798q1 24 9 48t30 38q92 56 177 35t154 -90t118 -172t67 -207q18 -62 13 -130t-25 -138t-53 -137t-71 -125q0 -10 20 -32t45 -46t49 -44t32 -26q26 -42 10 -85t-51 -79t-77 -59t-68 -23q16 -24 41 -73t47 -113t37 -138t12 -147t-30 -140t-89 -115q-36 -28 -77 -48 t-79 -25t-68 11t-44 62q108 48 157 106t59 122t-12 131t-54 131t-66 124t-51 110t-7 88t66 58q12 2 38 8t54 14t51 16t27 14q-32 22 -75 44t-73 49t-38 61t30 80q88 44 131 131t47 187t-24 200t-82 171t-127 98t-159 -19q-10 8 -16 29t-5 45z" />
<glyph unicode="~" horiz-adv-x="1306" d="M97 937q19 53 64 112t106 115t120 84t106 18t61 -80q16 -110 57 -160t94 -59t110 14t106 62t82 86t39 83q14 20 43 22t55 -11t40 -41t-2 -66q-92 -146 -211 -230t-231 -93t-200 62t-116 237q-2 4 -7 4t-7 -4q-26 -22 -53 -58t-55 -73t-56 -68t-54 -45q-20 -10 -43 -4 t-39 18q-28 22 -9 75z" />
<glyph unicode="&#xa3;" horiz-adv-x="856" d="M1 870q-1 26 13 54t42 44q12 2 53 4t93 4q-20 146 13 261t96 195t143 121t156 39t135 -48t79 -142q0 -18 -11 -36t-27 -26t-33 -1t-29 39q-26 68 -94 83t-136 -30t-113 -156t-25 -293q58 2 102 2t58 2q26 2 43 -20t21 -50t-8 -56t-44 -40l-170 -4q0 -146 -9 -289 t-25 -275q18 18 55 28t84 10t99 -11t100 -35t86 -61t56 -91q-2 -18 -11 -35t-22 -28t-28 -14t-27 5q-106 90 -178 114t-123 9t-85 -55t-63 -76t-58 -54t-69 10q-30 28 -35 72t4 89t29 82t42 53q22 136 27 273t1 275l-152 -4q-26 0 -40 18t-15 44z" />
<glyph unicode="&#xa8;" horiz-adv-x="878" d="M156 1690q-8 28 2 53t32 46t49 32t56 10t51 -17q36 -28 32 -71t-31 -77t-69 -48t-82 18q-32 26 -40 54zM484 1682q-8 28 2 53t32 46t49 32t56 10t51 -17q36 -28 32 -71t-31 -77t-69 -48t-82 18q-32 26 -40 54z" />
<glyph unicode="&#xaa;" d="M48 384q4 76 10 180t18 219t33 233t53 222t78 185t110 125q59 40 132 40h14q82 -4 186 -72q-10 -64 -18 -173t-13 -244t-9 -281t-5 -283t-1 -252t2 -185q4 -18 4 -32q0 -30 -17 -47q-22 -22 -52 -22h-7q-34 3 -64 33t-30 88q-94 -102 -174 -116q-18 -3 -36 -3 q-58 0 -101 36q-57 47 -88 141q-26 79 -26 172q0 18 1 36zM202 302q0 -96 8 -142q4 -33 24 -33h1q21 1 50 24t62 61t61 78t48 76t24 54q16 214 29 480t17 542q-8 8 -23 8q-6 0 -13 -1q-24 -5 -50 -19t-49 -36t-33 -46q-32 -36 -57 -124t-44 -205t-31 -249t-18 -252t-6 -216z " />
<glyph unicode="&#xad;" horiz-adv-x="802" d="M133 638q-1 26 13 54t42 44q18 2 85 5t145 6t145 5t85 2q26 2 43 -20t21 -50t-8 -56t-44 -40l-472 -12q-26 0 -40 18t-15 44z" />
<glyph unicode="&#xaf;" horiz-adv-x="802" d="M85 1654q-1 26 13 54t42 44q12 2 52 4t95 3t118 2t118 1t95 1t52 1q26 2 43 -20t21 -50t-8 -56t-44 -40l-542 -6q-26 0 -40 18t-15 44z" />
<glyph unicode="&#x2c9;" horiz-adv-x="802" d="M85 1654q-1 26 13 54t42 44q12 2 52 4t95 3t118 2t118 1t95 1t52 1q26 2 43 -20t21 -50t-8 -56t-44 -40l-542 -6q-26 0 -40 18t-15 44z" />
<glyph unicode="&#xb2;" horiz-adv-x="994" d="M-1 349q11 97 51 174t103 133t136 81t149 18t144 -55q12 -8 17 11t5 55t-4 81t-8 89t-7 80t-3 54q-2 80 -17 157t-40 140t-61 105t-82 52t-102 -18t-120 -106q-18 -14 -31 8t-19 61t-4 84t16 79q2 6 10 16t14 14q6 2 29 12t49 21t49 21t29 12q74 34 157 -13t163 -169 q66 -102 103 -230t53 -268t13 -282t-17 -272l176 -374q14 -30 8 -62t-22 -56t-38 -35t-38 -1q-46 0 -72 40t-41 88t-24 88t-23 38q-28 -38 -59 -76t-63 -71t-66 -56t-70 -31q-48 -8 -95 -18t-94 -9t-95 20t-102 67q-2 4 -8 17t-12 29t-11 31l-7 21q-30 108 -19 205zM155 332 q-17 -68 5 -138q32 -58 96 -64t133 25t128 95t81 146q-28 90 -77 130t-105 41t-111 -31t-94 -84t-56 -120z" />
<glyph unicode="&#xb3;" horiz-adv-x="910" d="M-20 1633q18 27 36 39q10 6 33 20t47 27t45 24t27 13q100 34 199 20t225 -80q26 -14 45 -28t34 -32t31 -43t36 -59q30 -52 26 -108t-29 -111t-62 -106t-75 -94t-68 -75t-40 -48q164 -68 256 -169t119 -210t-10 -214t-133 -183q-12 -12 -42 -33t-64 -44t-65 -42t-43 -25 q-6 -4 -30 -10t-52 -14t-53 -14t-31 -8q-22 -6 -43 -17t-44 -14t-47 9t-54 52q-6 8 -18 27t-21 38t-10 34t11 19q18 2 62 16t94 30t94 31t62 23q6 2 25 14t41 26t42 28t30 20q6 4 20 19t30 31t30 32t20 24q50 60 50 112t-33 92t-88 67t-113 41q-52 12 -94 14t-80 -4t-74 -18 t-76 -30q-18 -2 -41 28t-38 70t-16 79t21 55l218 78q22 16 67 73t90 128t80 139t41 108q-50 28 -102 44t-101 18t-93 -11t-76 -43q-4 -4 -16 -15t-26 -25l-26 -26l-16 -16q-34 -26 -70 12t-70 116q-22 52 -4 79z" />
<glyph unicode="&#xb8;" horiz-adv-x="552" d="M40 -342q10 28 33 45t41 3q62 -30 111 -31t78 16t37 44t-12 52t-69 41t-135 10l-12 244h138v-136q62 10 115 -23t85 -86t37 -114t-31 -107t-119 -66t-225 10q-54 12 -68 41t-4 57z" />
<glyph unicode="&#xb9;" horiz-adv-x="456" d="M96 1608q-6 90 28 124t78 29t83 -39t43 -78q0 -4 -4 -17t-8 -28t-9 -29t-5 -16q-4 -18 1 -26t-7 -20l34 -1444q4 -62 -39 -78t-117 40q-6 4 -17 25t-11 29z" />
<glyph unicode="&#xba;" horiz-adv-x="724" d="M49 600q3 136 15 260t30 224t34 148q18 52 45 111t64 106t87 75q39 22 87 22q14 0 29 -2q20 -2 29 -13t12 -26t5 -31t8 -26q20 -30 46 -40t51 -21t45 -33t26 -78q4 -70 8 -171q3 -67 3 -141q0 -37 -1 -75q-2 -115 -11 -236t-31 -232t-57 -204t-88 -152t-128 -76 q-22 -5 -45 -5q-58 0 -128 30q-54 32 -84 122t-42 209q-10 95 -10 201q0 27 1 54zM199 464v-24q0 -81 6 -142q7 -70 23 -96q8 -36 36 -40q8 -1 16 -1q21 0 44 7q32 10 60 29t38 31q32 76 55 179t35 217t15 228q1 31 1 61q0 80 -6 153q-8 100 -25 176t-43 112q-22 17 -42 17 q-17 0 -32 -12q-34 -27 -63 -94t-51 -165t-37 -207t-22 -221t-8 -208z" />
<glyph unicode="&#xbf;" horiz-adv-x="802" d="M748.008 312.09q-175.99 -175.99 -308.981 -247.985q-132.992 -71.9951 -215.987 -59.9961q-82.9941 11.999 -111.993 95.9941q-28.998 83.9951 5 220.986t135.991 314.98q101.994 177.989 279.983 373.978l-29.998 249.984q-8 51.9971 11.999 72.9961 q19.999 20.998 47.9971 21.998t54.9971 -12.999q26.998 -13.999 30.998 -33.998l29.998 -331.979q-13.999 -23.998 -64.9961 -93.9941t-111.993 -160.99t-121.992 -188.988q-60.9971 -97.9941 -96.9941 -177.989q-27.999 -63.9961 -26.999 -105.993 q1 -41.998 38.998 -44.998t115.993 41.998q77.9951 44.9971 199.987 152.99q6 10 33.998 7t55.9961 -14.999q27.999 -12 44.998 -32.998q16.999 -20.999 3 -44.9971zM638.014 1687.01q4 -38.998 -16.999 -68.9961q-20.998 -29.998 -56.9961 -40.998 q-35.998 -10.999 -71.9951 18.999q-35.998 27.999 -45.998 68.9961q-9.99902 40.9971 3 71.9951t47.9971 41.998q34.998 10.999 88.9951 -22.999q47.9971 -29.998 51.9961 -68.9951z" />
<glyph unicode="&#xc0;" horiz-adv-x="986" d="M38 14l104 556q2 12 -7 22t-21 20t-22 22t-8 26q4 26 23 42t41 29t41 27t25 36l210 980q12 50 41 59q10 3 20 3l38 -11q29 -17 52 -52t27 -73q28 6 52 -10t41 -41t27 -53t12 -48l26 -648q22 0 52 7t62 15t62 16t50 10q32 -14 41 -27q7 -10 7 -20q0 -15 -13 -36 q-9 -15 -13 -31q-26 -14 -57 -27t-62 -27t-61 -30t-54 -34q0 -12 6 -55t14 -102t18 -125t19 -125t15 -102t8 -55t7 -31t13 -37t16 -33t18 -19q30 64 56 74t42 -12t21 -65q1 -13 1 -25q0 -30 -8 -57q-12 -39 -44 -64q-21 -16 -52 -16q-17 0 -38 5q-40 8 -71 29t-54 50t-37 64 t-20 69q-2 12 -10 56t-17 102t-20 125t-21 125t-17 101t-9 55q-16 6 -57 -5t-87 -26t-87 -31t-55 -22l-134 -572q-10 -30 -37 -38t-54 -1t-47 24q-15 13 -15 28q0 4 1 9zM374 770q19 -10 49 -10h11q38 2 72 15t58 38q19 20 19 46q0 6 -1 13q-2 20 -4 72t-3 119t-2 141 t-4 138t-7 109t-12 55q-18 -24 -37 -79t-39 -127t-38 -151t-31 -153t-22 -134t-9 -92zM348 2261q4 21 20 36t35 24t31 9l200 -216q14 -18 11 -41t-17 -41t-36 -26t-46 6l-184 208q-18 20 -14 41z" />
<glyph unicode="&#xc1;" horiz-adv-x="986" d="M38 14l104 556q2 12 -7 22t-21 20t-22 22t-8 26q4 26 23 42t41 29t41 27t25 36l210 980q12 50 41 59q10 3 20 3l38 -11q29 -17 52 -52t27 -73q28 6 52 -10t41 -41t27 -53t12 -48l26 -648q22 0 52 7t62 15t62 16t50 10q32 -14 41 -27q7 -10 7 -20q0 -15 -13 -36 q-9 -15 -13 -31q-26 -14 -57 -27t-62 -27t-61 -30t-54 -34q0 -12 6 -55t14 -102t18 -125t19 -125t15 -102t8 -55t7 -31t13 -37t16 -33t18 -19q30 64 56 74t42 -12t21 -65q1 -13 1 -25q0 -30 -8 -57q-12 -39 -44 -64q-21 -16 -52 -16q-17 0 -38 5q-40 8 -71 29t-54 50t-37 64 t-20 69q-2 12 -10 56t-17 102t-20 125t-21 125t-17 101t-9 55q-16 6 -57 -5t-87 -26t-87 -31t-55 -22l-134 -572q-10 -30 -37 -38t-54 -1t-47 24q-15 13 -15 28q0 4 1 9zM374 770q19 -10 49 -10h11q38 2 72 15t58 38q19 20 19 46q0 6 -1 13q-2 20 -4 72t-3 119t-2 141 t-4 138t-7 109t-12 55q-18 -24 -37 -79t-39 -127t-38 -151t-31 -153t-22 -134t-9 -92zM339 2073q-3 23 11 41l200 216q12 0 31 -9t35 -24t20 -36t-14 -41l-184 -208q-24 -14 -46 -6t-36 26t-17 41z" />
<glyph unicode="&#xc2;" horiz-adv-x="986" d="M38 14l104 556q2 12 -7 22t-21 20t-22 22t-8 26q4 26 23 42t41 29t41 27t25 36l210 980q12 50 41 59q10 3 20 3l38 -11q29 -17 52 -52t27 -73q28 6 52 -10t41 -41t27 -53t12 -48l26 -648q22 0 52 7t62 15t62 16t50 10q32 -14 41 -27q7 -10 7 -20q0 -15 -13 -36 q-9 -15 -13 -31q-26 -14 -57 -27t-62 -27t-61 -30t-54 -34q0 -12 6 -55t14 -102t18 -125t19 -125t15 -102t8 -55t7 -31t13 -37t16 -33t18 -19q30 64 56 74t42 -12t21 -65q1 -13 1 -25q0 -30 -8 -57q-12 -39 -44 -64q-21 -16 -52 -16q-17 0 -38 5q-40 8 -71 29t-54 50t-37 64 t-20 69q-2 12 -10 56t-17 102t-20 125t-21 125t-17 101t-9 55q-16 6 -57 -5t-87 -26t-87 -31t-55 -22l-134 -572q-10 -30 -37 -38t-54 -1t-47 24q-15 13 -15 28q0 4 1 9zM374 770q19 -10 49 -10h11q38 2 72 15t58 38q19 20 19 46q0 6 -1 13q-2 20 -4 72t-3 119t-2 141 t-4 138t-7 109t-12 55q-18 -24 -37 -79t-39 -127t-38 -151t-31 -153t-22 -134t-9 -92zM256 2118l188 330q10 20 38 35t59 19t58 -7t35 -43l124 -362q-24 -24 -53 -35t-54 -10t-43 11t-22 28l-70 160l-96 -172q-16 -28 -48 -34t-61 3t-47 30t-8 47z" />
<glyph unicode="&#xc3;" horiz-adv-x="986" d="M38 14l104 556q2 12 -7 22t-21 20t-22 22t-8 26q4 26 23 42t41 29t41 27t25 36l210 980q12 50 41 59q10 3 20 3l38 -11q29 -17 52 -52t27 -73q28 6 52 -10t41 -41t27 -53t12 -48l26 -648q22 0 52 7t62 15t62 16t50 10q32 -14 41 -27q7 -10 7 -20q0 -15 -13 -36 q-9 -15 -13 -31q-26 -14 -57 -27t-62 -27t-61 -30t-54 -34q0 -12 6 -55t14 -102t18 -125t19 -125t15 -102t8 -55t7 -31t13 -37t16 -33t18 -19q30 64 56 74t42 -12t21 -65q1 -13 1 -25q0 -30 -8 -57q-12 -39 -44 -64q-21 -16 -52 -16q-17 0 -38 5q-40 8 -71 29t-54 50t-37 64 t-20 69q-2 12 -10 56t-17 102t-20 125t-21 125t-17 101t-9 55q-16 6 -57 -5t-87 -26t-87 -31t-55 -22l-134 -572q-10 -30 -37 -38t-54 -1t-47 24q-15 13 -15 28q0 4 1 9zM374 770q19 -10 49 -10h11q38 2 72 15t58 38q19 20 19 46q0 6 -1 13q-2 20 -4 72t-3 119t-2 141 t-4 138t-7 109t-12 55q-18 -24 -37 -79t-39 -127t-38 -151t-31 -153t-22 -134t-9 -92zM-17 2155q19 53 64 112t106 115t120 84t106 18t61 -80q16 -108 57 -159t94 -60t110 14t106 62t82 86t39 83q14 20 43 22t55 -11t40 -41t-2 -66q-92 -146 -211 -230t-231 -93t-200 62 t-116 237q-2 4 -7 4t-7 -4q-26 -22 -53 -58t-55 -73t-56 -68t-54 -45q-20 -10 -43 -4t-39 18q-28 22 -9 75z" />
<glyph unicode="&#xc4;" horiz-adv-x="986" d="M38 14l104 556q2 12 -7 22t-21 20t-22 22t-8 26q4 26 23 42t41 29t41 27t25 36l210 980q12 50 41 59q10 3 20 3l38 -11q29 -17 52 -52t27 -73q28 6 52 -10t41 -41t27 -53t12 -48l26 -648q22 0 52 7t62 15t62 16t50 10q32 -14 41 -27q7 -10 7 -20q0 -15 -13 -36 q-9 -15 -13 -31q-26 -14 -57 -27t-62 -27t-61 -30t-54 -34q0 -12 6 -55t14 -102t18 -125t19 -125t15 -102t8 -55t7 -31t13 -37t16 -33t18 -19q30 64 56 74t42 -12t21 -65q1 -13 1 -25q0 -30 -8 -57q-12 -39 -44 -64q-21 -16 -52 -16q-17 0 -38 5q-40 8 -71 29t-54 50t-37 64 t-20 69q-2 12 -10 56t-17 102t-20 125t-21 125t-17 101t-9 55q-16 6 -57 -5t-87 -26t-87 -31t-55 -22l-134 -572q-10 -30 -37 -38t-54 -1t-47 24q-15 13 -15 28q0 4 1 9zM374 770q19 -10 49 -10h11q38 2 72 15t58 38q19 20 19 46q0 6 -1 13q-2 20 -4 72t-3 119t-2 141 t-4 138t-7 109t-12 55q-18 -24 -37 -79t-39 -127t-38 -151t-31 -153t-22 -134t-9 -92zM244 2106q-8 28 2 53t32 46t49 32t56 10t51 -17q36 -28 32 -71t-31 -77t-69 -48t-82 18q-32 26 -40 54zM572 2098q-8 28 2 53t32 46t49 32t56 10t51 -17q36 -28 32 -71t-31 -77t-69 -48 t-82 18q-32 26 -40 54z" />
<glyph unicode="&#xc5;" horiz-adv-x="986" d="M38 14l104 556q2 12 -7 22t-21 20t-22 22t-8 26q4 26 23 42t41 29t41 27t25 36l210 980q12 50 41 59q10 3 20 3l38 -11q29 -17 52 -52t27 -73q28 6 52 -10t41 -41t27 -53t12 -48l26 -648q22 0 52 7t62 15t62 16t50 10q32 -14 41 -27q7 -10 7 -20q0 -15 -13 -36 q-9 -15 -13 -31q-26 -14 -57 -27t-62 -27t-61 -30t-54 -34q0 -12 6 -55t14 -102t18 -125t19 -125t15 -102t8 -55t7 -31t13 -37t16 -33t18 -19q30 64 56 74t42 -12t21 -65q1 -13 1 -25q0 -30 -8 -57q-12 -39 -44 -64q-21 -16 -52 -16q-17 0 -38 5q-40 8 -71 29t-54 50t-37 64 t-20 69q-2 12 -10 56t-17 102t-20 125t-21 125t-17 101t-9 55q-16 6 -57 -5t-87 -26t-87 -31t-55 -22l-134 -572q-10 -30 -37 -38t-54 -1t-47 24q-15 13 -15 28q0 4 1 9zM374 770q19 -10 49 -10h11q38 2 72 15t58 38q19 20 19 46q0 6 -1 13q-2 20 -4 72t-3 119t-2 141 t-4 138t-7 109t-12 55q-18 -24 -37 -79t-39 -127t-38 -151t-31 -153t-22 -134t-9 -92zM218 2203q2 47 41 98t127 103q102 52 182 54t133 -27t77 -80t14 -106t-57 -105t-133 -78q-76 -24 -146 -23t-124 22t-85 58t-29 84zM350 2217q-10 -35 29 -56t139 1q38 10 71 39t45 59 t-6 53t-84 21q-80 -10 -132 -46t-62 -71z" />
<glyph unicode="&#xc6;" horiz-adv-x="1642" d="M50 78l164 546q4 10 -5 21t-20 22t-20 24t-5 27q8 26 28 41t43 27t44 24t27 32l314 964q12 30 28 43t34 13t36 -11t34 -29q22 24 52 29t59 -10t53 -48t36 -83l36 -6l342 48q38 6 71 -14t53 -48t24 -54t-14 -30l-520 -112q-10 -2 -15 -33t-6 -77t-1 -99t2 -98t3 -76l1 -31 q78 12 137 26t114 22t113 7t136 -17q34 -22 45 -59t7 -61q-44 -4 -119 -14t-155 -28t-153 -44t-113 -64v-44v-99q0 -59 -1 -129t0 -131t4 -106t7 -55l514 24q48 2 79 -16t38 -42t-12 -46t-69 -28l-538 -58q-18 -2 -33 -11t-22 -23t-5 -29t18 -29q36 62 63 70t42 -16t15 -66 t-16 -81t-51 -61t-91 -4q-28 8 -61 38t-60 90t-44 153t-13 227q-4 50 -6 98t-5 87t-4 66t-1 37q-14 6 -57 0t-91 -18t-91 -25t-57 -17l-192 -560q-12 -30 -40 -35t-55 4t-44 27t-11 38zM464 806q22 -14 60 -15t74 9t62 33t24 57q0 20 4 72t10 120t12 142t10 138t4 110t-6 56 q-20 -24 -45 -77t-52 -123t-54 -148t-48 -151t-36 -132t-19 -91z" />
<glyph unicode="&#xc7;" horiz-adv-x="952" d="M56 601q10 131 36 261t63 254t75 228q26 72 73 151t103 142t114 100q44 28 82 28q12 0 24 -3q48 -12 82 -84t42 -226v-150q0 -4 2 -17t4 -28t5 -28t3 -15v-22q-12 -44 -24 -97t-27 -92t-37 -52q-6 -3 -13 -3q-19 0 -43 26q-42 42 -50 108q-4 35 -4 73q0 33 3 68 q7 75 21 153t16 144q-6 4 -13 4q-25 0 -60 -44q-45 -56 -95 -158t-99 -236t-83 -273t-47 -271q-5 -54 -5 -102q0 -70 11 -129q19 -99 78 -150q41 -36 107 -36q29 0 62 7q24 4 63 39t84 82t92 97t87 87t70 53t40 -8q4 -27 4 -54q0 -57 -20 -110q-30 -78 -87 -143t-130 -113 t-147 -75t-139 -29h-9q-59 0 -94 24q-94 62 -144 159t-68 213q-12 75 -12 155q0 45 4 92zM226 -414q10 28 33 45t41 3q62 -30 111 -31t78 16t37 44t-12 52t-69 41t-135 10l-12 244h138v-136q62 10 115 -23t85 -86t37 -114t-31 -107t-119 -66t-225 10q-54 12 -68 41t-4 57z " />
<glyph unicode="&#xc8;" horiz-adv-x="1164" d="M10 220q2 14 22 19t48 4t61 -5t60 -5t44 3t17 20v1158q-2 24 -17 48t-34 47t-35 42t-17 36t17 29t68 18q-5 30 -5 55q0 50 19 81q28 46 70 50h8q38 0 77 -32q43 -36 59 -110l36 -6l342 48q9 1 17 1q28 0 54 -15q33 -20 53 -48t24 -54t-14 -30l-520 -112q-10 -2 -15 -33 t-6 -77t-1 -99t2 -98t3 -76l1 -31q78 12 137 26t114 22q49 7 100 7h13q58 -1 136 -17q34 -22 45 -59t7 -61q-44 -4 -119 -14t-155 -28t-153 -44t-113 -64v-44v-99q0 -59 -1 -129q0 -35 -0.5 -67.5t0.5 -63.5q1 -61 4 -106t7 -55l514 24h9q42 0 70 -16q31 -18 38 -42 q2 -6 2 -13q0 -17 -14 -33q-19 -22 -69 -28l-538 -58q-24 -2 -38 -14t-21 -29t-13 -39t-14 -42q-10 -15 -33 -15h-8q-29 3 -60 20t-55 42t-26 53q-18 0 -55 10t-73 31t-60 51q-18 22 -18 48q0 9 2 18zM438 2261q4 21 20 36t35 24t31 9l200 -216q14 -18 11 -41t-17 -41 t-36 -26t-46 6l-184 208q-18 20 -14 41z" />
<glyph unicode="&#xc9;" horiz-adv-x="1164" d="M10 220q2 14 22 19t48 4t61 -5t60 -5t44 3t17 20v1158q-2 24 -17 48t-34 47t-35 42t-17 36t17 29t68 18q-5 30 -5 55q0 50 19 81q28 46 70 50h8q38 0 77 -32q43 -36 59 -110l36 -6l342 48q9 1 17 1q28 0 54 -15q33 -20 53 -48t24 -54t-14 -30l-520 -112q-10 -2 -15 -33 t-6 -77t-1 -99t2 -98t3 -76l1 -31q78 12 137 26t114 22q49 7 100 7h13q58 -1 136 -17q34 -22 45 -59t7 -61q-44 -4 -119 -14t-155 -28t-153 -44t-113 -64v-44v-99q0 -59 -1 -129q0 -35 -0.5 -67.5t0.5 -63.5q1 -61 4 -106t7 -55l514 24h9q42 0 70 -16q31 -18 38 -42 q2 -6 2 -13q0 -17 -14 -33q-19 -22 -69 -28l-538 -58q-24 -2 -38 -14t-21 -29t-13 -39t-14 -42q-10 -15 -33 -15h-8q-29 3 -60 20t-55 42t-26 53q-18 0 -55 10t-73 31t-60 51q-18 22 -18 48q0 9 2 18zM429 2073q-3 23 11 41l200 216q12 0 31 -9t35 -24t20 -36t-14 -41 l-184 -208q-24 -14 -46 -6t-36 26t-17 41z" />
<glyph unicode="&#xca;" horiz-adv-x="1164" d="M10 220q2 14 22 19t48 4t61 -5t60 -5t44 3t17 20v1158q-2 24 -17 48t-34 47t-35 42t-17 36t17 29t68 18q-5 30 -5 55q0 50 19 81q28 46 70 50h8q38 0 77 -32q43 -36 59 -110l36 -6l342 48q9 1 17 1q28 0 54 -15q33 -20 53 -48t24 -54t-14 -30l-520 -112q-10 -2 -15 -33 t-6 -77t-1 -99t2 -98t3 -76l1 -31q78 12 137 26t114 22q49 7 100 7h13q58 -1 136 -17q34 -22 45 -59t7 -61q-44 -4 -119 -14t-155 -28t-153 -44t-113 -64v-44v-99q0 -59 -1 -129q0 -35 -0.5 -67.5t0.5 -63.5q1 -61 4 -106t7 -55l514 24h9q42 0 70 -16q31 -18 38 -42 q2 -6 2 -13q0 -17 -14 -33q-19 -22 -69 -28l-538 -58q-24 -2 -38 -14t-21 -29t-13 -39t-14 -42q-10 -15 -33 -15h-8q-29 3 -60 20t-55 42t-26 53q-18 0 -55 10t-73 31t-60 51q-18 22 -18 48q0 9 2 18zM344 2118l188 330q10 20 38 35t59 19t58 -7t35 -43l124 -362 q-24 -24 -53 -35t-54 -10t-43 11t-22 28l-70 160l-96 -172q-16 -28 -48 -34t-61 3t-47 30t-8 47z" />
<glyph unicode="&#xcb;" horiz-adv-x="1164" d="M10 220q2 14 22 19t48 4t61 -5t60 -5t44 3t17 20v1158q-2 24 -17 48t-34 47t-35 42t-17 36t17 29t68 18q-5 30 -5 55q0 50 19 81q28 46 70 50h8q38 0 77 -32q43 -36 59 -110l36 -6l342 48q9 1 17 1q28 0 54 -15q33 -20 53 -48t24 -54t-14 -30l-520 -112q-10 -2 -15 -33 t-6 -77t-1 -99t2 -98t3 -76l1 -31q78 12 137 26t114 22q49 7 100 7h13q58 -1 136 -17q34 -22 45 -59t7 -61q-44 -4 -119 -14t-155 -28t-153 -44t-113 -64v-44v-99q0 -59 -1 -129q0 -35 -0.5 -67.5t0.5 -63.5q1 -61 4 -106t7 -55l514 24h9q42 0 70 -16q31 -18 38 -42 q2 -6 2 -13q0 -17 -14 -33q-19 -22 -69 -28l-538 -58q-24 -2 -38 -14t-21 -29t-13 -39t-14 -42q-10 -15 -33 -15h-8q-29 3 -60 20t-55 42t-26 53q-18 0 -55 10t-73 31t-60 51q-18 22 -18 48q0 9 2 18zM332 2106q-8 28 2 53t32 46t49 32t56 10t51 -17q36 -28 32 -71t-31 -77 t-69 -48t-82 18q-32 26 -40 54zM660 2098q-8 28 2 53t32 46t49 32t56 10t51 -17q36 -28 32 -71t-31 -77t-69 -48t-82 18q-32 26 -40 54z" />
<glyph unicode="&#xcc;" horiz-adv-x="308" d="M72 1656q-1 14 -1 26q0 56 22 86q24 32 53 32q4 0 8 -1q34 -5 62 -49q23 -36 23 -100q0 -14 -1 -28l20 -1440q3 -18 3 -38q0 -23 -4 -47q-7 -45 -27 -75t-54 -34h-6q-32 0 -78 38zM12 2261q4 21 20 36t35 24t31 9l200 -216q14 -18 11 -41t-17 -41t-36 -26t-46 6l-184 208 q-18 20 -14 41z" />
<glyph unicode="&#xcd;" horiz-adv-x="308" d="M72 1656q-1 14 -1 26q0 56 22 86q24 32 53 32q4 0 8 -1q34 -5 62 -49q23 -36 23 -100q0 -14 -1 -28l20 -1440q3 -18 3 -38q0 -23 -4 -47q-7 -45 -27 -75t-54 -34h-6q-32 0 -78 38zM3 2073q-3 23 11 41l200 216q12 0 31 -9t35 -24t20 -36t-14 -41l-184 -208 q-24 -14 -46 -6t-36 26t-17 41z" />
<glyph unicode="&#xce;" horiz-adv-x="308" d="M72 1656q-1 14 -1 26q0 56 22 86q24 32 53 32q4 0 8 -1q34 -5 62 -49q23 -36 23 -100q0 -14 -1 -28l20 -1440q3 -18 3 -38q0 -23 -4 -47q-7 -45 -27 -75t-54 -34h-6q-32 0 -78 38zM-80 2118l188 330q10 20 38 35t59 19t58 -7t35 -43l124 -362q-24 -24 -53 -35t-54 -10 t-43 11t-22 28l-70 160l-96 -172q-16 -28 -48 -34t-61 3t-47 30t-8 47z" />
<glyph unicode="&#xcf;" horiz-adv-x="308" d="M72 1656q-1 14 -1 26q0 56 22 86q24 32 53 32q4 0 8 -1q34 -5 62 -49q23 -36 23 -100q0 -14 -1 -28l20 -1440q3 -18 3 -38q0 -23 -4 -47q-7 -45 -27 -75t-54 -34h-6q-32 0 -78 38zM-92 2106q-8 28 2 53t32 46t49 32t56 10t51 -17q36 -28 32 -71t-31 -77t-69 -48t-82 18 q-32 26 -40 54zM236 2098q-8 28 2 53t32 46t49 32t56 10t51 -17q36 -28 32 -71t-31 -77t-69 -48t-82 18q-32 26 -40 54z" />
<glyph unicode="&#xd0;" horiz-adv-x="902" d="M10 1570q-5 9 -5 17q0 11 13 17l84 34q-4 66 -4 114t16 100q10 30 40 35q9 1 18 1q22 0 44 -8q32 -12 60 -38t36 -58q2 -16 -3 -37t-10 -43t-6 -42t11 -34q12 -6 41 -19t62 -28t62 -29t41 -20q24 -10 49 -30t49 -44t46 -49t38 -43q74 -114 117 -262t51 -303q2 -34 2 -67 q0 -121 -23 -238q-29 -150 -99 -271t-182 -201t-272 -92q-36 14 -52 34t-23 43t-10 49t-13 52q-2 6 -10 11t-17 11t-16 13t-7 17q14 80 21 182t9 216q1 57 1 115.5t-1 118.5q-2 120 -8 236t-16 221t-20 191q2 8 -23 30t-51 48t-40 50zM298 1472l18 -1364q13 -3 28 -3 q12 0 25 2q29 5 56 16t49 23t32 22q84 82 131 214t57 285q3 42 3 85q0 112 -19 226q-26 158 -88 294q-38 80 -111 130t-155 72q-4 1 -10 1h-7q-11 -1 -9 -3zM5.25488 860.723q-0.768555 23.3701 9.97949 48.5381q10.748 25.1689 32.2441 39.5498 q9.21191 1.79785 39.9199 3.5957t72.9316 2.69727q42.2236 0.898438 90.5889 1.79688q48.3643 0.899414 90.5879 0.899414t72.9316 0.898438q30.708 0.899414 39.9209 0.899414q19.96 1.79785 33.0107 -17.9775t16.1221 -44.9434q3.07031 -25.168 -6.1416 -50.3359 q-9.21289 -25.1689 -33.7793 -35.9551l-416.093 -5.39355q-19.9609 0 -30.709 16.1797q-10.7471 16.1797 -11.5146 39.5508z" />
<glyph unicode="&#xd1;" horiz-adv-x="1088" d="M81 691q11 273 15 454q3 145 3 239v44q-1 102 -4 155t-7 71t-4 32v10q0 38 29 55q28 16 66 16h12q45 -3 89 -26t64 -59q12 -24 14 -51t4 -56t4 -57t14 -54q88 -292 147 -490t99 -326t65 -200t44 -112t37 -62t46 -50q22 -48 29 -9q6 34 6 113v24q-1 98 -7 238t-11 294 q-4 128 -4 255v51q1 152 12 272t38 194q26 70 70 70h5q60 -4 67 -44q2 -12 2 -26q0 -31 -11 -67q-16 -53 -40 -108t-24 -87l34 -1206q-8 -24 -16 -67t-23 -80t-41 -58q-13 -10 -30 -10q-18 0 -42 11q-100 40 -168 122t-115 190t-79 233t-58 250t-53 242t-65 209l-14 -4 q-12 -272 -22 -465t-18 -324t-14 -209t-11 -120t-7 -57t-4 -19q-12 -34 -38 -45q-20 -9 -41 -9q-6 0 -12 1q-27 3 -47 16q-18 12 -18 26q0 155 16 398t17 272zM35 2155q19 53 64 112t106 115t120 84t106 18t61 -80q16 -108 57 -159t94 -60t110 14t106 62t82 86t39 83 q14 20 43 22t55 -11t40 -41t-2 -66q-92 -146 -211 -230t-231 -93t-200 62t-116 237q-2 4 -7 4t-7 -4q-26 -22 -53 -58t-55 -73t-56 -68t-54 -45q-20 -10 -43 -4t-39 18q-28 22 -9 75z" />
<glyph unicode="&#xd2;" horiz-adv-x="884" d="M44 619q-3 58 -3 117q0 95 8 192q13 156 43 302t76 259t106 180q58 65 128 65h4q120 -4 207 -89t141 -218t77 -299q17 -119 17 -240q0 -47 -3 -95q-9 -169 -48 -325t-108 -269t-168 -166q-59 -32 -127 -32q-47 0 -98 15q-80 24 -133 110t-82 213t-37 280zM187 705v-14 q0 -119 16 -220q17 -107 53 -182t92 -99q35 -9 66 -9q50 0 87 24q61 39 101 134t63 244t41 345q-2 90 -17 190t-41 187t-62 153t-79 89q-19 10 -40 10q-26 0 -54 -15q-51 -28 -105 -128q-38 -88 -65 -207t-41 -247t-15 -255zM298 2261q4 21 20 36t35 24t31 9l200 -216 q14 -18 11 -41t-17 -41t-36 -26t-46 6l-184 208q-18 20 -14 41z" />
<glyph unicode="&#xd3;" horiz-adv-x="884" d="M44 619q-3 58 -3 117q0 95 8 192q13 156 43 302t76 259t106 180q58 65 128 65h4q120 -4 207 -89t141 -218t77 -299q17 -119 17 -240q0 -47 -3 -95q-9 -169 -48 -325t-108 -269t-168 -166q-59 -32 -127 -32q-47 0 -98 15q-80 24 -133 110t-82 213t-37 280zM187 705v-14 q0 -119 16 -220q17 -107 53 -182t92 -99q35 -9 66 -9q50 0 87 24q61 39 101 134t63 244t41 345q-2 90 -17 190t-41 187t-62 153t-79 89q-19 10 -40 10q-26 0 -54 -15q-51 -28 -105 -128q-38 -88 -65 -207t-41 -247t-15 -255zM289 2073q-3 23 11 41l200 216q12 0 31 -9 t35 -24t20 -36t-14 -41l-184 -208q-24 -14 -46 -6t-36 26t-17 41z" />
<glyph unicode="&#xd4;" horiz-adv-x="884" d="M44 619q-3 58 -3 117q0 95 8 192q13 156 43 302t76 259t106 180q58 65 128 65h4q120 -4 207 -89t141 -218t77 -299q17 -119 17 -240q0 -47 -3 -95q-9 -169 -48 -325t-108 -269t-168 -166q-59 -32 -127 -32q-47 0 -98 15q-80 24 -133 110t-82 213t-37 280zM187 705v-14 q0 -119 16 -220q17 -107 53 -182t92 -99q35 -9 66 -9q50 0 87 24q61 39 101 134t63 244t41 345q-2 90 -17 190t-41 187t-62 153t-79 89q-19 10 -40 10q-26 0 -54 -15q-51 -28 -105 -128q-38 -88 -65 -207t-41 -247t-15 -255zM204 2118l188 330q10 20 38 35t59 19t58 -7 t35 -43l124 -362q-24 -24 -53 -35t-54 -10t-43 11t-22 28l-70 160l-96 -172q-16 -28 -48 -34t-61 3t-47 30t-8 47z" />
<glyph unicode="&#xd5;" horiz-adv-x="884" d="M44 619q-3 58 -3 117q0 95 8 192q13 156 43 302t76 259t106 180q58 65 128 65h4q120 -4 207 -89t141 -218t77 -299q17 -119 17 -240q0 -47 -3 -95q-9 -169 -48 -325t-108 -269t-168 -166q-59 -32 -127 -32q-47 0 -98 15q-80 24 -133 110t-82 213t-37 280zM187 705v-14 q0 -119 16 -220q17 -107 53 -182t92 -99q35 -9 66 -9q50 0 87 24q61 39 101 134t63 244t41 345q-2 90 -17 190t-41 187t-62 153t-79 89q-19 10 -40 10q-26 0 -54 -15q-51 -28 -105 -128q-38 -88 -65 -207t-41 -247t-15 -255zM-67 2155q19 53 64 112t106 115t120 84t106 18 t61 -80q16 -108 57 -159t94 -60t110 14t106 62t82 86t39 83q14 20 43 22t55 -11t40 -41t-2 -66q-92 -146 -211 -230t-231 -93t-200 62t-116 237q-2 4 -7 4t-7 -4q-26 -22 -53 -58t-55 -73t-56 -68t-54 -45q-20 -10 -43 -4t-39 18q-28 22 -9 75z" />
<glyph unicode="&#xd6;" horiz-adv-x="884" d="M44 619q-3 58 -3 117q0 95 8 192q13 156 43 302t76 259t106 180q58 65 128 65h4q120 -4 207 -89t141 -218t77 -299q17 -119 17 -240q0 -47 -3 -95q-9 -169 -48 -325t-108 -269t-168 -166q-59 -32 -127 -32q-47 0 -98 15q-80 24 -133 110t-82 213t-37 280zM187 705v-14 q0 -119 16 -220q17 -107 53 -182t92 -99q35 -9 66 -9q50 0 87 24q61 39 101 134t63 244t41 345q-2 90 -17 190t-41 187t-62 153t-79 89q-19 10 -40 10q-26 0 -54 -15q-51 -28 -105 -128q-38 -88 -65 -207t-41 -247t-15 -255zM192 2106q-8 28 2 53t32 46t49 32t56 10t51 -17 q36 -28 32 -71t-31 -77t-69 -48t-82 18q-32 26 -40 54zM520 2098q-8 28 2 53t32 46t49 32t56 10t51 -17q36 -28 32 -71t-31 -77t-69 -48t-82 18q-32 26 -40 54z" />
<glyph unicode="&#xd8;" horiz-adv-x="884" d="M44 619q-3 58 -3 117q0 95 8 192q13 156 43 302t76 259t106 180q58 65 128 65h4q120 -4 207 -89t141 -218t77 -299q17 -119 17 -240q0 -47 -3 -95q-9 -169 -48 -325t-108 -269t-168 -166q-59 -32 -127 -32q-47 0 -98 15q-80 24 -133 110t-82 213t-37 280zM187 705v-14 q0 -119 16 -220q17 -107 53 -182t92 -99q35 -9 66 -9q50 0 87 24q61 39 101 134t63 244t41 345q-2 90 -17 190t-41 187t-62 153t-79 89q-19 10 -40 10q-26 0 -54 -15q-51 -28 -105 -128q-38 -88 -65 -207t-41 -247t-15 -255zM131.535 -17.1973l436.808 1635.69 q15.7607 79.79 56.29 114.436q40.5283 34.6455 77.6797 27.2959q37.1504 -7.34863 55.1641 -56.6924q18.0117 -49.3438 -13.5098 -137.532l-378.267 -1438.32q-6.75488 -41.9941 -28.1455 -88.1885q-21.3896 -46.1943 -52.9121 -74.541q-31.5215 -28.3457 -70.9248 -29.3955 q-39.4023 -1.0498 -82.1826 47.2432z" />
<glyph unicode="&#xd9;" horiz-adv-x="918" d="M28 1284q2 146 10 261t28 167q16 36 46 44q13 4 27 4l33 -6q30 -10 53 -38t27 -64q-24 -52 -38 -146t-21 -210t-7 -247t4 -259t11 -244t15 -204t15 -138t11 -46q6 2 19 12t27 22t27 23t17 17q44 48 91 97t88 103t73 114t48 130q2 38 9 120t15 184t16 214t13 210t5 172 t-6 102q22 46 62 59q21 7 41 7q18 0 35 -6q36 -12 57 -46q13 -20 13 -46q0 -17 -6 -36q-40 -298 -55 -536t-16 -426v-37q0 -165 8 -294q9 -143 15 -249q2 -26 19 -47t26 -39q4 -7 4 -15q0 -10 -8 -20q-13 -17 -73 -31h-14q-10 6 -33 17t-27 15q-48 36 -66 77t-24 83t-8 84 t-16 84q-10 -12 -36 -41t-55 -60t-55 -59t-38 -40t-32 -29t-44 -32t-50 -24t-52 -7q-42 4 -78 27t-63 56t-42 72t-17 73q-2 62 -7 182t-10 269t-9 312q-3 109 -3 210q0 50 1 99zM314 2261q4 21 20 36t35 24t31 9l200 -216q14 -18 11 -41t-17 -41t-36 -26t-46 6l-184 208 q-18 20 -14 41z" />
<glyph unicode="&#xda;" horiz-adv-x="918" d="M28 1284q2 146 10 261t28 167q16 36 46 44q13 4 27 4l33 -6q30 -10 53 -38t27 -64q-24 -52 -38 -146t-21 -210t-7 -247t4 -259t11 -244t15 -204t15 -138t11 -46q6 2 19 12t27 22t27 23t17 17q44 48 91 97t88 103t73 114t48 130q2 38 9 120t15 184t16 214t13 210t5 172 t-6 102q22 46 62 59q21 7 41 7q18 0 35 -6q36 -12 57 -46q13 -20 13 -46q0 -17 -6 -36q-40 -298 -55 -536t-16 -426v-37q0 -165 8 -294q9 -143 15 -249q2 -26 19 -47t26 -39q4 -7 4 -15q0 -10 -8 -20q-13 -17 -73 -31h-14q-10 6 -33 17t-27 15q-48 36 -66 77t-24 83t-8 84 t-16 84q-10 -12 -36 -41t-55 -60t-55 -59t-38 -40t-32 -29t-44 -32t-50 -24t-52 -7q-42 4 -78 27t-63 56t-42 72t-17 73q-2 62 -7 182t-10 269t-9 312q-3 109 -3 210q0 50 1 99zM305 2073q-3 23 11 41l200 216q12 0 31 -9t35 -24t20 -36t-14 -41l-184 -208q-24 -14 -46 -6 t-36 26t-17 41z" />
<glyph unicode="&#xdb;" horiz-adv-x="918" d="M28 1284q2 146 10 261t28 167q16 36 46 44q13 4 27 4l33 -6q30 -10 53 -38t27 -64q-24 -52 -38 -146t-21 -210t-7 -247t4 -259t11 -244t15 -204t15 -138t11 -46q6 2 19 12t27 22t27 23t17 17q44 48 91 97t88 103t73 114t48 130q2 38 9 120t15 184t16 214t13 210t5 172 t-6 102q22 46 62 59q21 7 41 7q18 0 35 -6q36 -12 57 -46q13 -20 13 -46q0 -17 -6 -36q-40 -298 -55 -536t-16 -426v-37q0 -165 8 -294q9 -143 15 -249q2 -26 19 -47t26 -39q4 -7 4 -15q0 -10 -8 -20q-13 -17 -73 -31h-14q-10 6 -33 17t-27 15q-48 36 -66 77t-24 83t-8 84 t-16 84q-10 -12 -36 -41t-55 -60t-55 -59t-38 -40t-32 -29t-44 -32t-50 -24t-52 -7q-42 4 -78 27t-63 56t-42 72t-17 73q-2 62 -7 182t-10 269t-9 312q-3 109 -3 210q0 50 1 99zM222 2118l188 330q10 20 38 35t59 19t58 -7t35 -43l124 -362q-24 -24 -53 -35t-54 -10t-43 11 t-22 28l-70 160l-96 -172q-16 -28 -48 -34t-61 3t-47 30t-8 47z" />
<glyph unicode="&#xdc;" horiz-adv-x="918" d="M28 1284q2 146 10 261t28 167q16 36 46 44q13 4 27 4l33 -6q30 -10 53 -38t27 -64q-24 -52 -38 -146t-21 -210t-7 -247t4 -259t11 -244t15 -204t15 -138t11 -46q6 2 19 12t27 22t27 23t17 17q44 48 91 97t88 103t73 114t48 130q2 38 9 120t15 184t16 214t13 210t5 172 t-6 102q22 46 62 59q21 7 41 7q18 0 35 -6q36 -12 57 -46q13 -20 13 -46q0 -17 -6 -36q-40 -298 -55 -536t-16 -426v-37q0 -165 8 -294q9 -143 15 -249q2 -26 19 -47t26 -39q4 -7 4 -15q0 -10 -8 -20q-13 -17 -73 -31h-14q-10 6 -33 17t-27 15q-48 36 -66 77t-24 83t-8 84 t-16 84q-10 -12 -36 -41t-55 -60t-55 -59t-38 -40t-32 -29t-44 -32t-50 -24t-52 -7q-42 4 -78 27t-63 56t-42 72t-17 73q-2 62 -7 182t-10 269t-9 312q-3 109 -3 210q0 50 1 99zM210 2106q-8 28 2 53t32 46t49 32t56 10t51 -17q36 -28 32 -71t-31 -77t-69 -48t-82 18 q-32 26 -40 54zM538 2098q-8 28 2 53t32 46t49 32t56 10t51 -17q36 -28 32 -71t-31 -77t-69 -48t-82 18q-32 26 -40 54z" />
<glyph unicode="&#xdd;" horiz-adv-x="994" d="M46 682q-1 52 -1 104q0 104 3 209q4 157 15 289t28 228t41 128q14 24 33 41t42 25t50 2t59 -28q-28 -64 -50 -171t-36 -238t-21 -276t-8 -286v-47q0 -116 4 -223q5 -129 17 -226t29 -153q16 -54 37 -54h2q100 80 166 191t106 239t60 265t25 271q3 84 3 162q0 47 -1 93 q-3 121 -8 217t-7 158v19q0 45 8 59q12 22 39 31q17 6 35 6q10 0 20 -2q28 -5 49 -24t23 -51l6 -1566q6 0 31 16t54 35t54 34t33 13q55 -35 55 -73q0 -44 -49 -94q-40 -41 -94 -76t-86 -59q-18 -84 -33 -166t-34 -163t-48 -163t-75 -162q-22 -36 -42 -61t-45 -36 q-16 -7 -35 -7q-10 0 -21 2q-31 6 -75 34q-50 70 -68 147q-13 55 -13 111q0 22 2 44q7 78 36 154t72 145t96 128t111 101l8 8q4 4 4 6l16 272l-2 14q-6 -14 -26 -49t-43 -74t-45 -74t-30 -47q-62 -94 -133 -143q-62 -43 -118 -43q-8 0 -16 1q-63 7 -111 78t-64 215 q-16 102 -24 243t-10 297zM474 -590q-1 -13 -1 -26q0 -52 13 -100q60 98 94 227t48 251q-44 -44 -77 -102t-53 -121t-24 -129zM343 2073q-3 23 11 41l200 216q12 0 31 -9t35 -24t20 -36t-14 -41l-184 -208q-24 -14 -46 -6t-36 26t-17 41z" />
<glyph unicode="&#xde;" horiz-adv-x="842" d="M88 -424l4 1972q0 64 23 92t50 29t50 -20t25 -53l-12 -252q64 38 134 42t136 -25t122 -87t90 -144q30 -48 50 -135t27 -194t0 -223t-30 -223t-65 -196t-104 -139t-146 -54t-194 60l14 -442q-10 -24 -39 -40t-59 -19t-53 9t-23 42zM252 214q70 -96 134 -99t116 60t86 177 t42 251t-15 284t-83 275q-62 64 -111 68t-83 -22t-52 -64t-18 -58q0 -10 -2 -76t-4 -159t-4 -201t-3 -201t-2 -159t-1 -76z" />
<glyph unicode="&#xdf;" horiz-adv-x="914" d="M42 -74l6 1600q78 106 155 154t146 56t127 -17t100 -65t66 -87t24 -83q0 -122 -27 -216t-64 -159t-74 -100t-55 -41q144 -6 232 -46t129 -101t42 -136t-28 -153t-83 -152t-121 -131t-143 -91t-150 -34q-44 8 -56 30t-3 46t35 46t62 34q106 46 178 109t108 128t36 126 t-38 104t-116 60t-196 -5l-20 254q42 34 79 84t64 107t43 115t16 107t-17 83t-53 42q-38 0 -77 -10t-71 -29t-52 -48t-18 -67l-20 -1546q-2 -30 -28 -38t-58 0t-57 27t-23 43z" />
<glyph unicode="&#xe0;" d="M48 384q4 76 10 180t18 219t33 233t53 222t78 185t110 125q59 40 132 40h14q82 -4 186 -72q-10 -64 -18 -173t-13 -244t-9 -281t-5 -283t-1 -252t2 -185q4 -18 4 -32q0 -30 -17 -47q-22 -22 -52 -22h-7q-34 3 -64 33t-30 88q-94 -102 -174 -116q-18 -3 -36 -3 q-58 0 -101 36q-57 47 -88 141q-26 79 -26 172q0 18 1 36zM202 302q0 -96 8 -142q4 -33 24 -33h1q21 1 50 24t62 61t61 78t48 76t24 54q16 214 29 480t17 542q-8 8 -23 8q-6 0 -13 -1q-24 -5 -50 -19t-49 -36t-33 -46q-32 -36 -57 -124t-44 -205t-31 -249t-18 -252t-6 -216z M322 2029q4 21 20 36t35 24t31 9l200 -216q14 -18 11 -41t-17 -41t-36 -26t-46 6l-184 208q-18 20 -14 41z" />
<glyph unicode="&#xe1;" d="M48 384q4 76 10 180t18 219t33 233t53 222t78 185t110 125q59 40 132 40h14q82 -4 186 -72q-10 -64 -18 -173t-13 -244t-9 -281t-5 -283t-1 -252t2 -185q4 -18 4 -32q0 -30 -17 -47q-22 -22 -52 -22h-7q-34 3 -64 33t-30 88q-94 -102 -174 -116q-18 -3 -36 -3 q-58 0 -101 36q-57 47 -88 141q-26 79 -26 172q0 18 1 36zM202 302q0 -96 8 -142q4 -33 24 -33h1q21 1 50 24t62 61t61 78t48 76t24 54q16 214 29 480t17 542q-8 8 -23 8q-6 0 -13 -1q-24 -5 -50 -19t-49 -36t-33 -46q-32 -36 -57 -124t-44 -205t-31 -249t-18 -252t-6 -216z M341 1749q-3 23 11 41l200 216q12 0 31 -9t35 -24t20 -36t-14 -41l-184 -208q-24 -14 -46 -6t-36 26t-17 41z" />
<glyph unicode="&#xe2;" d="M48 384q4 76 10 180t18 219t33 233t53 222t78 185t110 125q59 40 132 40h14q82 -4 186 -72q-10 -64 -18 -173t-13 -244t-9 -281t-5 -283t-1 -252t2 -185q4 -18 4 -32q0 -30 -17 -47q-22 -22 -52 -22h-7q-34 3 -64 33t-30 88q-94 -102 -174 -116q-18 -3 -36 -3 q-58 0 -101 36q-57 47 -88 141q-26 79 -26 172q0 18 1 36zM202 302q0 -96 8 -142q4 -33 24 -33h1q21 1 50 24t62 61t61 78t48 76t24 54q16 214 29 480t17 542q-8 8 -23 8q-6 0 -13 -1q-24 -5 -50 -19t-49 -36t-33 -46q-32 -36 -57 -124t-44 -205t-31 -249t-18 -252t-6 -216z M230 1720l188 330q10 20 38 35t59 19t58 -7t35 -43l124 -362q-24 -24 -53 -35t-54 -10t-43 11t-22 28l-70 160l-96 -172q-16 -28 -48 -34t-61 3t-47 30t-8 47z" />
<glyph unicode="&#xe3;" d="M48 384q4 76 10 180t18 219t33 233t53 222t78 185t110 125q59 40 132 40h14q82 -4 186 -72q-10 -64 -18 -173t-13 -244t-9 -281t-5 -283t-1 -252t2 -185q4 -18 4 -32q0 -30 -17 -47q-22 -22 -52 -22h-7q-34 3 -64 33t-30 88q-94 -102 -174 -116q-18 -3 -36 -3 q-58 0 -101 36q-57 47 -88 141q-26 79 -26 172q0 18 1 36zM202 302q0 -96 8 -142q4 -33 24 -33h1q21 1 50 24t62 61t61 78t48 76t24 54q16 214 29 480t17 542q-8 8 -23 8q-6 0 -13 -1q-24 -5 -50 -19t-49 -36t-33 -46q-32 -36 -57 -124t-44 -205t-31 -249t-18 -252t-6 -216z M-51 1861q19 53 64 112t106 115t120 84t106 18t61 -80q16 -108 57 -159t94 -60t110 14t106 62t82 86t39 83q14 20 43 22t55 -11t40 -41t-2 -66q-92 -146 -211 -230t-231 -93t-200 62t-116 237q-2 4 -7 4t-7 -4q-26 -22 -53 -58t-55 -73t-56 -68t-54 -45q-20 -10 -43 -4 t-39 18q-28 22 -9 75z" />
<glyph unicode="&#xe4;" d="M48 384q4 76 10 180t18 219t33 233t53 222t78 185t110 125q59 40 132 40h14q82 -4 186 -72q-10 -64 -18 -173t-13 -244t-9 -281t-5 -283t-1 -252t2 -185q4 -18 4 -32q0 -30 -17 -47q-22 -22 -52 -22h-7q-34 3 -64 33t-30 88q-94 -102 -174 -116q-18 -3 -36 -3 q-58 0 -101 36q-57 47 -88 141q-26 79 -26 172q0 18 1 36zM202 302q0 -96 8 -142q4 -33 24 -33h1q21 1 50 24t62 61t61 78t48 76t24 54q16 214 29 480t17 542q-8 8 -23 8q-6 0 -13 -1q-24 -5 -50 -19t-49 -36t-33 -46q-32 -36 -57 -124t-44 -205t-31 -249t-18 -252t-6 -216z M174 1812q-8 28 2 53t32 46t49 32t56 10t51 -17q36 -28 32 -71t-31 -77t-69 -48t-82 18q-32 26 -40 54zM502 1804q-8 28 2 53t32 46t49 32t56 10t51 -17q36 -28 32 -71t-31 -77t-69 -48t-82 18q-32 26 -40 54z" />
<glyph unicode="&#xe5;" d="M48 384q4 76 10 180t18 219t33 233t53 222t78 185t110 125q59 40 132 40h14q82 -4 186 -72q-10 -64 -18 -173t-13 -244t-9 -281t-5 -283t-1 -252t2 -185q4 -18 4 -32q0 -30 -17 -47q-22 -22 -52 -22h-7q-34 3 -64 33t-30 88q-94 -102 -174 -116q-18 -3 -36 -3 q-58 0 -101 36q-57 47 -88 141q-26 79 -26 172q0 18 1 36zM202 302q0 -96 8 -142q4 -33 24 -33h1q21 1 50 24t62 61t61 78t48 76t24 54q16 214 29 480t17 542q-8 8 -23 8q-6 0 -13 -1q-24 -5 -50 -19t-49 -36t-33 -46q-32 -36 -57 -124t-44 -205t-31 -249t-18 -252t-6 -216z M106 1787q2 47 41 98t127 103q102 52 182 54t133 -27t77 -80t14 -106t-57 -105t-133 -78q-76 -24 -146 -23t-124 22t-85 58t-29 84zM238 1801q-10 -35 29 -56t139 1q38 10 71 39t45 59t-6 53t-84 21q-80 -10 -132 -46t-62 -71z" />
<glyph unicode="&#xe6;" horiz-adv-x="1140" d="M48 384q10 100 21 245t34 298t63 296t104 237t158 121t228 -51q40 34 88 43t112 -15q72 -42 111 -105t58 -138t25 -156t12 -157q-22 -24 -72 -19t-108 19t-114 28t-90 8q-14 -34 -22 -99t-12 -144t-4 -165t3 -160t8 -128t11 -72q18 -48 46 -69t63 -24t74 7t76 21t70 20 t57 5q22 -16 16 -41t-12 -41q-12 -34 -56 -59t-98 -40t-107 -18t-83 5q-66 0 -107 58t-65 150q-40 -88 -95 -147t-114 -85t-114 -18t-96 54t-61 129t-8 207zM202 302q0 -96 8 -142q6 -34 27 -33t52 23t65 58t63 75t50 74t25 53q-24 128 -18 274t28 283t50 249t50 170 q16 44 -11 60t-71 9t-91 -35t-71 -72q-32 -36 -57 -124t-44 -205t-31 -249t-18 -252t-6 -216zM702 1202q10 -12 33 -22t51 -18t56 -11t50 -1q0 8 -1 29t-2 45t-3 45t-2 31q-14 72 -33 104t-40 34t-42 -21t-37 -58t-25 -77t-5 -80z" />
<glyph unicode="&#xe7;" horiz-adv-x="682" d="M39 605q1 135 17 272t47 258t74 215t97 144q49 45 106 45h11q63 -5 133 -83q33 -73 33 -124q0 -10 -1 -20q-8 -56 -37 -71q-9 -5 -19 -5q-22 0 -48 22q-38 32 -56 124h-6q-30 0 -56 -37q-28 -41 -51 -112t-40 -165t-29 -196t-17 -207q-4 -88 -4 -167v-31q1 -93 9 -166 t22 -113q18 -32 45 -56q21 -19 53 -19q9 0 20 2q46 7 114 58t170 169q28 18 44 6t23 -36q6 -21 6 -44q0 -31 -7 -46q-44 -76 -107 -143t-139 -94q-37 -13 -76 -13q-42 0 -86 15q-86 29 -176 143q-36 92 -53 216q-16 117 -16 244v15zM220 -368q10 28 33 45t41 3 q62 -30 111 -31t78 16t37 44t-12 52t-69 41t-135 10l-12 244h138v-136q62 10 115 -23t85 -86t37 -114t-31 -107t-119 -66t-225 10q-54 12 -68 41t-4 57z" />
<glyph unicode="&#xe8;" horiz-adv-x="636" d="M37 687v46q0 91 3 172q4 101 6 161q2 42 10 101t25 119t44 116t66 93t91 50q17 4 36 4q38 0 84 -17q72 -42 111 -105t58 -138t25 -156t12 -157q-18 -20 -56 -20q-8 0 -16 1q-50 5 -108 19t-114 28q-39 10 -68 10q-12 0 -22 -2q-14 -34 -22 -99t-12 -144t-4 -165t3 -160 t8 -128t11 -72q18 -48 46 -69t63 -24q8 -1 16 -1q28 0 58 8q39 10 76 21t70 20t57 5q17 -13 17 -31q0 -5 -1 -10q-6 -25 -12 -41q-12 -34 -56 -59t-98 -40t-107 -18q-14 -1 -27 -1q-34 0 -56 6q-68 0 -110 63t-65 160t-32 217t-10 237zM248 1176q10 -12 33 -22t51 -18 t56 -11q17 -2 31 -2q10 0 19 1q0 8 -1 29t-2 45t-3 45t-2 31q-14 72 -33 104t-40 34h-3l-39 -21q-21 -23 -37 -58t-25 -77q-6 -29 -6 -56q0 -12 1 -24zM138 1899q4 21 20 36t35 24t31 9l200 -216q14 -18 11 -41t-17 -41t-36 -26t-46 6l-184 208q-18 20 -14 41z" />
<glyph unicode="&#xe9;" horiz-adv-x="636" d="M37 687v46q0 91 3 172q4 101 6 161q2 42 10 101t25 119t44 116t66 93t91 50q17 4 36 4q38 0 84 -17q72 -42 111 -105t58 -138t25 -156t12 -157q-18 -20 -56 -20q-8 0 -16 1q-50 5 -108 19t-114 28q-39 10 -68 10q-12 0 -22 -2q-14 -34 -22 -99t-12 -144t-4 -165t3 -160 t8 -128t11 -72q18 -48 46 -69t63 -24q8 -1 16 -1q28 0 58 8q39 10 76 21t70 20t57 5q17 -13 17 -31q0 -5 -1 -10q-6 -25 -12 -41q-12 -34 -56 -59t-98 -40t-107 -18q-14 -1 -27 -1q-34 0 -56 6q-68 0 -110 63t-65 160t-32 217t-10 237zM248 1176q10 -12 33 -22t51 -18 t56 -11q17 -2 31 -2q10 0 19 1q0 8 -1 29t-2 45t-3 45t-2 31q-14 72 -33 104t-40 34h-3l-39 -21q-21 -23 -37 -58t-25 -77q-6 -29 -6 -56q0 -12 1 -24zM165 1657q-3 23 11 41l200 216q12 0 31 -9t35 -24t20 -36t-14 -41l-184 -208q-24 -14 -46 -6t-36 26t-17 41z" />
<glyph unicode="&#xea;" horiz-adv-x="636" d="M37 687v46q0 91 3 172q4 101 6 161q2 42 10 101t25 119t44 116t66 93t91 50q17 4 36 4q38 0 84 -17q72 -42 111 -105t58 -138t25 -156t12 -157q-18 -20 -56 -20q-8 0 -16 1q-50 5 -108 19t-114 28q-39 10 -68 10q-12 0 -22 -2q-14 -34 -22 -99t-12 -144t-4 -165t3 -160 t8 -128t11 -72q18 -48 46 -69t63 -24q8 -1 16 -1q28 0 58 8q39 10 76 21t70 20t57 5q17 -13 17 -31q0 -5 -1 -10q-6 -25 -12 -41q-12 -34 -56 -59t-98 -40t-107 -18q-14 -1 -27 -1q-34 0 -56 6q-68 0 -110 63t-65 160t-32 217t-10 237zM248 1176q10 -12 33 -22t51 -18 t56 -11q17 -2 31 -2q10 0 19 1q0 8 -1 29t-2 45t-3 45t-2 31q-14 72 -33 104t-40 34h-3l-39 -21q-21 -23 -37 -58t-25 -77q-6 -29 -6 -56q0 -12 1 -24zM84 1702l188 330q10 20 38 35t59 19t58 -7t35 -43l124 -362q-24 -24 -53 -35t-54 -10t-43 11t-22 28l-70 160l-96 -172 q-16 -28 -48 -34t-61 3t-47 30t-8 47z" />
<glyph unicode="&#xeb;" horiz-adv-x="636" d="M37 687v46q0 91 3 172q4 101 6 161q2 42 10 101t25 119t44 116t66 93t91 50q17 4 36 4q38 0 84 -17q72 -42 111 -105t58 -138t25 -156t12 -157q-18 -20 -56 -20q-8 0 -16 1q-50 5 -108 19t-114 28q-39 10 -68 10q-12 0 -22 -2q-14 -34 -22 -99t-12 -144t-4 -165t3 -160 t8 -128t11 -72q18 -48 46 -69t63 -24q8 -1 16 -1q28 0 58 8q39 10 76 21t70 20t57 5q17 -13 17 -31q0 -5 -1 -10q-6 -25 -12 -41q-12 -34 -56 -59t-98 -40t-107 -18q-14 -1 -27 -1q-34 0 -56 6q-68 0 -110 63t-65 160t-32 217t-10 237zM248 1176q10 -12 33 -22t51 -18 t56 -11q17 -2 31 -2q10 0 19 1q0 8 -1 29t-2 45t-3 45t-2 31q-14 72 -33 104t-40 34h-3l-39 -21q-21 -23 -37 -58t-25 -77q-6 -29 -6 -56q0 -12 1 -24zM72 1690q-8 28 2 53t32 46t49 32t56 10t51 -17q36 -28 32 -71t-31 -77t-69 -48t-82 18q-32 26 -40 54zM400 1682 q-8 28 2 53t32 46t49 32t56 10t51 -17q36 -28 32 -71t-31 -77t-69 -48t-82 18q-32 26 -40 54z" />
<glyph unicode="&#xec;" horiz-adv-x="380" d="M56 503q2 145 10 302t18 315t8 296q6 42 27 59t45 18t46 -9t34 -22q6 -98 2 -221t-10 -253t-11 -257t-3 -235t15 -186t43 -109t80 -5t126 126q14 12 27 -1t19 -38t4 -55t-20 -52q-2 -22 -24 -53t-60 -60t-88 -50t-106 -21q-74 4 -114 73t-55 181t-13 257zM48 1845 q4 21 20 36t35 24t31 9l200 -216q14 -18 11 -41t-17 -41t-36 -26t-46 6l-184 208q-18 20 -14 41z" />
<glyph unicode="&#xed;" horiz-adv-x="380" d="M56 503q2 145 10 302t18 315t8 296q6 42 27 59t45 18t46 -9t34 -22q6 -98 2 -221t-10 -253t-11 -257t-3 -235t15 -186t43 -109t80 -5t126 126q14 12 27 -1t19 -38t4 -55t-20 -52q-2 -22 -24 -53t-60 -60t-88 -50t-106 -21q-74 4 -114 73t-55 181t-13 257zM39 1657 q-3 23 11 41l200 216q12 0 31 -9t35 -24t20 -36t-14 -41l-184 -208q-24 -14 -46 -6t-36 26t-17 41z" />
<glyph unicode="&#xee;" horiz-adv-x="380" d="M56 503q2 145 10 302t18 315t8 296q6 42 27 59t45 18t46 -9t34 -22q6 -98 2 -221t-10 -253t-11 -257t-3 -235t15 -186t43 -109t80 -5t126 126q14 12 27 -1t19 -38t4 -55t-20 -52q-2 -22 -24 -53t-60 -60t-88 -50t-106 -21q-74 4 -114 73t-55 181t-13 257zM-44 1702 l188 330q10 20 38 35t59 19t58 -7t35 -43l124 -362q-24 -24 -53 -35t-54 -10t-43 11t-22 28l-70 160l-96 -172q-16 -28 -48 -34t-61 3t-47 30t-8 47z" />
<glyph unicode="&#xef;" horiz-adv-x="380" d="M56 503q2 145 10 302t18 315t8 296q6 42 27 59t45 18t46 -9t34 -22q6 -98 2 -221t-10 -253t-11 -257t-3 -235t15 -186t43 -109t80 -5t126 126q14 12 27 -1t19 -38t4 -55t-20 -52q-2 -22 -24 -53t-60 -60t-88 -50t-106 -21q-74 4 -114 73t-55 181t-13 257zM-72 1690 q-8 28 2 53t32 46t49 32t56 10t51 -17q36 -28 32 -71t-31 -77t-69 -48t-82 18q-32 26 -40 54zM256 1682q-8 28 2 53t32 46t49 32t56 10t51 -17q36 -28 32 -71t-31 -77t-69 -48t-82 18q-32 26 -40 54z" />
<glyph unicode="&#xf1;" horiz-adv-x="828" d="M60 8l8 1456q4 30 28 52t52 27t50 -8t24 -51v-34q0 -50 -4 -92q-6 -56 -6 -126q42 98 75 157t63 94t58 53t58 30q18 4 34 4q26 0 47 -10q35 -16 60 -47t39 -71t20 -78q18 -100 24 -224t8 -251t5 -250t13 -220t33 -160t65 -71q19 -19 19 -43q0 -32 -23 -66 q-18 -27 -45 -45t-51 -12q-52 22 -83 99t-47 185t-21 238t-7 258t-4 245t-12 200t-30 121q-12 22 -29 22q-13 0 -29 -12q-72 -76 -118 -178t-72 -217t-36 -239t-12 -246q-1 -61 -1 -120.5t1 -116.5t1 -110.5t-1 -102.5q-14 -44 -32 -63t-38 -20h-3q-19 0 -38 12 q-21 13 -43 31zM-51 1885q19 53 64 112t106 115t120 84t106 18t61 -80q16 -108 57 -159t94 -60t110 14t106 62t82 86t39 83q14 20 43 22t55 -11t40 -41t-2 -66q-92 -146 -211 -230t-231 -93t-200 62t-116 237q-2 4 -7 4t-7 -4q-26 -22 -53 -58t-55 -73t-56 -68t-54 -45 q-20 -10 -43 -4t-39 18q-28 22 -9 75z" />
<glyph unicode="&#xf2;" horiz-adv-x="724" d="M49 600q3 136 15 260t30 224t34 148q18 52 45 111t64 106t87 75q39 22 87 22q14 0 29 -2q20 -2 29 -13t12 -26t5 -31t8 -26q20 -30 46 -40t51 -21t45 -33t26 -78q4 -70 8 -171q3 -67 3 -141q0 -37 -1 -75q-2 -115 -11 -236t-31 -232t-57 -204t-88 -152t-128 -76 q-22 -5 -45 -5q-58 0 -128 30q-54 32 -84 122t-42 209q-10 95 -10 201q0 27 1 54zM199 464v-24q0 -81 6 -142q7 -70 23 -96q8 -36 36 -40q8 -1 16 -1q21 0 44 7q32 10 60 29t38 31q32 76 55 179t35 217t15 228q1 31 1 61q0 80 -6 153q-8 100 -25 176t-43 112q-22 17 -42 17 q-17 0 -32 -12q-34 -27 -63 -94t-51 -165t-37 -207t-22 -221t-8 -208zM218 1845q4 21 20 36t35 24t31 9l200 -216q14 -18 11 -41t-17 -41t-36 -26t-46 6l-184 208q-18 20 -14 41z" />
<glyph unicode="&#xf3;" horiz-adv-x="724" d="M49 600q3 136 15 260t30 224t34 148q18 52 45 111t64 106t87 75q39 22 87 22q14 0 29 -2q20 -2 29 -13t12 -26t5 -31t8 -26q20 -30 46 -40t51 -21t45 -33t26 -78q4 -70 8 -171q3 -67 3 -141q0 -37 -1 -75q-2 -115 -11 -236t-31 -232t-57 -204t-88 -152t-128 -76 q-22 -5 -45 -5q-58 0 -128 30q-54 32 -84 122t-42 209q-10 95 -10 201q0 27 1 54zM199 464v-24q0 -81 6 -142q7 -70 23 -96q8 -36 36 -40q8 -1 16 -1q21 0 44 7q32 10 60 29t38 31q32 76 55 179t35 217t15 228q1 31 1 61q0 80 -6 153q-8 100 -25 176t-43 112q-22 17 -42 17 q-17 0 -32 -12q-34 -27 -63 -94t-51 -165t-37 -207t-22 -221t-8 -208zM209 1657q-3 23 11 41l200 216q12 0 31 -9t35 -24t20 -36t-14 -41l-184 -208q-24 -14 -46 -6t-36 26t-17 41z" />
<glyph unicode="&#xf4;" horiz-adv-x="724" d="M49 600q3 136 15 260t30 224t34 148q18 52 45 111t64 106t87 75q39 22 87 22q14 0 29 -2q20 -2 29 -13t12 -26t5 -31t8 -26q20 -30 46 -40t51 -21t45 -33t26 -78q4 -70 8 -171q3 -67 3 -141q0 -37 -1 -75q-2 -115 -11 -236t-31 -232t-57 -204t-88 -152t-128 -76 q-22 -5 -45 -5q-58 0 -128 30q-54 32 -84 122t-42 209q-10 95 -10 201q0 27 1 54zM199 464v-24q0 -81 6 -142q7 -70 23 -96q8 -36 36 -40q8 -1 16 -1q21 0 44 7q32 10 60 29t38 31q32 76 55 179t35 217t15 228q1 31 1 61q0 80 -6 153q-8 100 -25 176t-43 112q-22 17 -42 17 q-17 0 -32 -12q-34 -27 -63 -94t-51 -165t-37 -207t-22 -221t-8 -208zM124 1702l188 330q10 20 38 35t59 19t58 -7t35 -43l124 -362q-24 -24 -53 -35t-54 -10t-43 11t-22 28l-70 160l-96 -172q-16 -28 -48 -34t-61 3t-47 30t-8 47z" />
<glyph unicode="&#xf5;" horiz-adv-x="724" d="M49 600q3 136 15 260t30 224t34 148q18 52 45 111t64 106t87 75q39 22 87 22q14 0 29 -2q20 -2 29 -13t12 -26t5 -31t8 -26q20 -30 46 -40t51 -21t45 -33t26 -78q4 -70 8 -171q3 -67 3 -141q0 -37 -1 -75q-2 -115 -11 -236t-31 -232t-57 -204t-88 -152t-128 -76 q-22 -5 -45 -5q-58 0 -128 30q-54 32 -84 122t-42 209q-10 95 -10 201q0 27 1 54zM199 464v-24q0 -81 6 -142q7 -70 23 -96q8 -36 36 -40q8 -1 16 -1q21 0 44 7q32 10 60 29t38 31q32 76 55 179t35 217t15 228q1 31 1 61q0 80 -6 153q-8 100 -25 176t-43 112q-22 17 -42 17 q-17 0 -32 -12q-34 -27 -63 -94t-51 -165t-37 -207t-22 -221t-8 -208zM-147 1739q19 53 64 112t106 115t120 84t106 18t61 -80q16 -108 57 -159t94 -60t110 14t106 62t82 86t39 83q14 20 43 22t55 -11t40 -41t-2 -66q-92 -146 -211 -230t-231 -93t-200 62t-116 237 q-2 4 -7 4t-7 -4q-26 -22 -53 -58t-55 -73t-56 -68t-54 -45q-20 -10 -43 -4t-39 18q-28 22 -9 75z" />
<glyph unicode="&#xf6;" horiz-adv-x="724" d="M49 600q3 136 15 260t30 224t34 148q18 52 45 111t64 106t87 75q39 22 87 22q14 0 29 -2q20 -2 29 -13t12 -26t5 -31t8 -26q20 -30 46 -40t51 -21t45 -33t26 -78q4 -70 8 -171q3 -67 3 -141q0 -37 -1 -75q-2 -115 -11 -236t-31 -232t-57 -204t-88 -152t-128 -76 q-22 -5 -45 -5q-58 0 -128 30q-54 32 -84 122t-42 209q-10 95 -10 201q0 27 1 54zM199 464v-24q0 -81 6 -142q7 -70 23 -96q8 -36 36 -40q8 -1 16 -1q21 0 44 7q32 10 60 29t38 31q32 76 55 179t35 217t15 228q1 31 1 61q0 80 -6 153q-8 100 -25 176t-43 112q-22 17 -42 17 q-17 0 -32 -12q-34 -27 -63 -94t-51 -165t-37 -207t-22 -221t-8 -208zM100 1690q-8 28 2 53t32 46t49 32t56 10t51 -17q36 -28 32 -71t-31 -77t-69 -48t-82 18q-32 26 -40 54zM428 1682q-8 28 2 53t32 46t49 32t56 10t51 -17q36 -28 32 -71t-31 -77t-69 -48t-82 18 q-32 26 -40 54z" />
<glyph unicode="&#xf8;" horiz-adv-x="724" d="M49 600q3 136 15 260t30 224t34 148q18 52 45 111t64 106t87 75q39 22 87 22q14 0 29 -2q20 -2 29 -13t12 -26t5 -31t8 -26q20 -30 46 -40t51 -21t45 -33t26 -78q4 -70 8 -171q3 -67 3 -141q0 -37 -1 -75q-2 -115 -11 -236t-31 -232t-57 -204t-88 -152t-128 -76 q-22 -5 -45 -5q-58 0 -128 30q-54 32 -84 122t-42 209q-10 95 -10 201q0 27 1 54zM199 464v-24q0 -81 6 -142q7 -70 23 -96q8 -36 36 -40q8 -1 16 -1q21 0 44 7q32 10 60 29t38 31q32 76 55 179t35 217t15 228q1 31 1 61q0 80 -6 153q-8 100 -25 176t-43 112q-22 17 -42 17 q-17 0 -32 -12q-34 -27 -63 -94t-51 -165t-37 -207t-22 -221t-8 -208zM80 -86l388 1558q14 76 50 109t69 26t49 -54t-12 -131l-336 -1370q-6 -40 -25 -84t-47 -71t-63 -28t-73 45z" />
<glyph unicode="&#xf9;" horiz-adv-x="908" d="M54 1450q0 26 18 39t44 15t55 -6t54 -23t39 -38t10 -49q-14 -40 -20 -128t-8 -199q-1 -56 -1 -114.5t1 -119.5q2 -123 6 -236t8 -205t8 -140q14 -16 36 -30t54 -4t72 56t90 152q12 16 25 99t25 199t24 249t22 250t18 203t12 108q20 18 53 34t66 17h3q31 0 54 -17 q24 -18 26 -66q-22 -72 -36 -188t-22 -255q-7 -124 -7 -255v-33q1 -149 10 -288t27 -256t48 -189q12 -12 12 -23q0 -5 -2 -9q-8 -14 -28 -22q-18 -7 -40 -7h-6q-26 1 -44 13q-76 48 -104 121t-32 167q-4 4 -4 12q-10 -12 -37 -44t-57 -67t-58 -65t-40 -42q-52 -54 -108 -54 h-8q-60 4 -110 46t-82 111t-30 139zM310 1845q4 21 20 36t35 24t31 9l200 -216q14 -18 11 -41t-17 -41t-36 -26t-46 6l-184 208q-18 20 -14 41z" />
<glyph unicode="&#xfa;" horiz-adv-x="908" d="M54 1450q0 26 18 39t44 15t55 -6t54 -23t39 -38t10 -49q-14 -40 -20 -128t-8 -199q-1 -56 -1 -114.5t1 -119.5q2 -123 6 -236t8 -205t8 -140q14 -16 36 -30t54 -4t72 56t90 152q12 16 25 99t25 199t24 249t22 250t18 203t12 108q20 18 53 34t66 17h3q31 0 54 -17 q24 -18 26 -66q-22 -72 -36 -188t-22 -255q-7 -124 -7 -255v-33q1 -149 10 -288t27 -256t48 -189q12 -12 12 -23q0 -5 -2 -9q-8 -14 -28 -22q-18 -7 -40 -7h-6q-26 1 -44 13q-76 48 -104 121t-32 167q-4 4 -4 12q-10 -12 -37 -44t-57 -67t-58 -65t-40 -42q-52 -54 -108 -54 h-8q-60 4 -110 46t-82 111t-30 139zM301 1657q-3 23 11 41l200 216q12 0 31 -9t35 -24t20 -36t-14 -41l-184 -208q-24 -14 -46 -6t-36 26t-17 41z" />
<glyph unicode="&#xfb;" horiz-adv-x="908" d="M54 1450q0 26 18 39t44 15t55 -6t54 -23t39 -38t10 -49q-14 -40 -20 -128t-8 -199q-1 -56 -1 -114.5t1 -119.5q2 -123 6 -236t8 -205t8 -140q14 -16 36 -30t54 -4t72 56t90 152q12 16 25 99t25 199t24 249t22 250t18 203t12 108q20 18 53 34t66 17h3q31 0 54 -17 q24 -18 26 -66q-22 -72 -36 -188t-22 -255q-7 -124 -7 -255v-33q1 -149 10 -288t27 -256t48 -189q12 -12 12 -23q0 -5 -2 -9q-8 -14 -28 -22q-18 -7 -40 -7h-6q-26 1 -44 13q-76 48 -104 121t-32 167q-4 4 -4 12q-10 -12 -37 -44t-57 -67t-58 -65t-40 -42q-52 -54 -108 -54 h-8q-60 4 -110 46t-82 111t-30 139zM216 1702l188 330q10 20 38 35t59 19t58 -7t35 -43l124 -362q-24 -24 -53 -35t-54 -10t-43 11t-22 28l-70 160l-96 -172q-16 -28 -48 -34t-61 3t-47 30t-8 47z" />
<glyph unicode="&#xfc;" horiz-adv-x="908" d="M54 1450q0 26 18 39t44 15t55 -6t54 -23t39 -38t10 -49q-14 -40 -20 -128t-8 -199q-1 -56 -1 -114.5t1 -119.5q2 -123 6 -236t8 -205t8 -140q14 -16 36 -30t54 -4t72 56t90 152q12 16 25 99t25 199t24 249t22 250t18 203t12 108q20 18 53 34t66 17h3q31 0 54 -17 q24 -18 26 -66q-22 -72 -36 -188t-22 -255q-7 -124 -7 -255v-33q1 -149 10 -288t27 -256t48 -189q12 -12 12 -23q0 -5 -2 -9q-8 -14 -28 -22q-18 -7 -40 -7h-6q-26 1 -44 13q-76 48 -104 121t-32 167q-4 4 -4 12q-10 -12 -37 -44t-57 -67t-58 -65t-40 -42q-52 -54 -108 -54 h-8q-60 4 -110 46t-82 111t-30 139zM190 1690q-8 28 2 53t32 46t49 32t56 10t51 -17q36 -28 32 -71t-31 -77t-69 -48t-82 18q-32 26 -40 54zM518 1682q-8 28 2 53t32 46t49 32t56 10t51 -17q36 -28 32 -71t-31 -77t-69 -48t-82 18q-32 26 -40 54z" />
<glyph unicode="&#xfd;" horiz-adv-x="950" d="M58 162q2 298 7 503t10 340t11 210t7 113t-2 51t-13 23q-15 32 -15 56q0 7 1 14q6 28 27 40t49 10t55 -20t45 -51t16 -79q2 -36 2 -78t-2 -91q-4 -97 -12 -205t-17 -221t-16 -220t-10 -202q-1 -26 -1 -50q0 -64 6 -113q13 -21 30 -21q12 0 27 10q35 25 76 94t85 170 t85 216t76 235t57 225t28 186q2 22 2 41q0 50 -12 78q-7 27 -7 49q0 31 14 50q19 27 44 27q6 0 12 -2q33 -8 61 -64q24 -49 24 -142v-28l42 -1132q10 -2 35 11t57 30t67 32t65 19t51 -10q25 -17 25 -62q0 -11 -6 -21q-8 -13 -18 -23l-260 -124q2 -20 5 -63t7 -99t8 -117 t7 -117t5 -99t4 -63q4 -50 5 -107v-13q0 -50 -7 -98q-8 -54 -26 -101t-51 -76t-84 -34q-8 -1 -16 -1q-46 0 -109 24q-134 98 -197 204t-73 211q-2 24 -2 49q0 80 25 158q33 102 90 191t127 161t134 120l-30 594q-8 -14 -26 -61t-42 -108t-51 -131t-51 -131t-43 -107t-27 -60 q-24 -42 -69 -97t-89 -91q-28 -24 -59 -24q-10 0 -21 3q-42 11 -77 45t-57 80q-19 39 -19 72q0 6 1 12zM496 -491q6 -69 43 -141t115 -146q34 -30 55 -30t34 19t18 53t7 69t2 68v53q-4 48 -9 128t-11 159t-11 142t-9 75q-44 -40 -88 -89t-78 -106t-54 -121q-15 -49 -15 -101 q0 -16 1 -32zM321 1657q-3 23 11 41l200 216q12 0 31 -9t35 -24t20 -36t-14 -41l-184 -208q-24 -14 -46 -6t-36 26t-17 41z" />
<glyph unicode="&#xfe;" horiz-adv-x="730" d="M24 1774q2 28 25 43t51 15t52 -18t26 -56l-18 -304q44 92 107 127t128 19t125 -81t100 -173t54 -258t-14 -336q-12 -88 -53 -187t-106 -175t-147 -110t-174 8l-2 -258q-60 -72 -142 -18zM177 712q1 -98 1 -166l2 -112q42 -46 88 -39t89 54t80 125t62 172t35 197t-1 199 t-46 178t-101 134q-58 14 -96 -29t-61 -121t-34 -181t-15 -208t-3 -203z" />
<glyph unicode="&#xff;" horiz-adv-x="950" d="M58 162q2 298 7 503t10 340t11 210t7 113t-2 51t-13 23q-15 32 -15 56q0 7 1 14q6 28 27 40t49 10t55 -20t45 -51t16 -79q2 -36 2 -78t-2 -91q-4 -97 -12 -205t-17 -221t-16 -220t-10 -202q-1 -26 -1 -50q0 -64 6 -113q13 -21 30 -21q12 0 27 10q35 25 76 94t85 170 t85 216t76 235t57 225t28 186q2 22 2 41q0 50 -12 78q-7 27 -7 49q0 31 14 50q19 27 44 27q6 0 12 -2q33 -8 61 -64q24 -49 24 -142v-28l42 -1132q10 -2 35 11t57 30t67 32t65 19t51 -10q25 -17 25 -62q0 -11 -6 -21q-8 -13 -18 -23l-260 -124q2 -20 5 -63t7 -99t8 -117 t7 -117t5 -99t4 -63q4 -50 5 -107v-13q0 -50 -7 -98q-8 -54 -26 -101t-51 -76t-84 -34q-8 -1 -16 -1q-46 0 -109 24q-134 98 -197 204t-73 211q-2 24 -2 49q0 80 25 158q33 102 90 191t127 161t134 120l-30 594q-8 -14 -26 -61t-42 -108t-51 -131t-51 -131t-43 -107t-27 -60 q-24 -42 -69 -97t-89 -91q-28 -24 -59 -24q-10 0 -21 3q-42 11 -77 45t-57 80q-19 39 -19 72q0 6 1 12zM496 -491q6 -69 43 -141t115 -146q34 -30 55 -30t34 19t18 53t7 69t2 68v53q-4 48 -9 128t-11 159t-11 142t-9 75q-44 -40 -88 -89t-78 -106t-54 -121q-15 -49 -15 -101 q0 -16 1 -32zM210 1690q-8 28 2 53t32 46t49 32t56 10t51 -17q36 -28 32 -71t-31 -77t-69 -48t-82 18q-32 26 -40 54zM538 1682q-8 28 2 53t32 46t49 32t56 10t51 -17q36 -28 32 -71t-31 -77t-69 -48t-82 18q-32 26 -40 54z" />
<glyph unicode="&#x131;" horiz-adv-x="380" d="M56 503q2 145 10 302t18 315t8 296q6 42 27 59t45 18t46 -9t34 -22q6 -98 2 -221t-10 -253t-11 -257t-3 -235t15 -186t43 -109t80 -5t126 126q14 12 27 -1t19 -38t4 -55t-20 -52q-2 -22 -24 -53t-60 -60t-88 -50t-106 -21q-74 4 -114 73t-55 181t-13 257z" />
<glyph unicode="&#x152;" horiz-adv-x="1458" d="M78 589q-8 153 5 309t43 302t76 259t106 180t132 65q40 -2 76 -14t70 -32q2 58 26 80t53 13t58 -47t45 -104l36 -6l342 48q38 6 71 -14t53 -48t24 -54t-14 -30l-520 -112q-10 -2 -15 -33t-6 -77t-1 -99t2 -98t3 -76l1 -31q78 12 137 26t114 22t113 7t136 -17 q34 -22 45 -59t7 -61q-44 -4 -119 -14t-155 -28t-153 -44t-113 -64v-44v-99q0 -59 -1 -129t0 -131t4 -106t7 -55l514 24q48 2 79 -16t38 -42t-12 -46t-69 -28l-538 -58q-24 -2 -38 -14t-21 -29t-13 -39t-14 -42q-12 -18 -41 -15t-60 20t-55 42t-26 53h-2q-84 -24 -178 2 q-80 24 -133 110t-82 213t-37 280zM245 741q-3 -123 6 -233t31 -198t59 -137t91 -49t126 66l30 1284q-26 30 -54 44t-60 5t-65 -42t-67 -97q-26 -74 -47 -178t-34 -223t-16 -242z" />
<glyph unicode="&#x153;" horiz-adv-x="1084" d="M82 576q2 126 13 241t27 209t32 142q14 46 40 108t60 123t73 113t81 78t84 18t82 -66l-2 -24q40 40 93 55t123 -13q72 -42 111 -105t58 -138t25 -156t12 -157q-22 -24 -72 -19t-108 19t-114 28t-90 8q-14 -34 -22 -99t-12 -144t-4 -165t3 -160t8 -128t11 -72 q18 -48 46 -69t63 -24t74 7t76 21t70 20t57 5q22 -16 16 -41t-12 -41q-12 -34 -56 -59t-98 -40t-107 -18t-83 5q-60 0 -102 54q-6 -30 -44 -49t-85 -27t-95 -6t-76 14q-60 34 -95 119t-49 196t-12 237zM240 484q4 -92 14 -164t28 -108q6 -24 22 -34t37 -8t44 10t43 20 q-14 114 -23 205t-13 174t-2 163t11 171t24 199t39 248q-42 16 -75 -17t-59 -100t-45 -159t-30 -195t-15 -208t0 -197zM634 1204q10 -12 33 -22t51 -18t56 -11t50 -1q0 8 -1 29t-2 45t-3 45t-2 31q-14 72 -33 104t-40 34t-42 -21t-37 -58t-25 -77t-5 -80z" />
<glyph unicode="&#x178;" horiz-adv-x="994" d="M46 682q-1 52 -1 104q0 104 3 209q4 157 15 289t28 228t41 128q14 24 33 41t42 25t50 2t59 -28q-28 -64 -50 -171t-36 -238t-21 -276t-8 -286v-47q0 -116 4 -223q5 -129 17 -226t29 -153q16 -54 37 -54h2q100 80 166 191t106 239t60 265t25 271q3 84 3 162q0 47 -1 93 q-3 121 -8 217t-7 158v19q0 45 8 59q12 22 39 31q17 6 35 6q10 0 20 -2q28 -5 49 -24t23 -51l6 -1566q6 0 31 16t54 35t54 34t33 13q55 -35 55 -73q0 -44 -49 -94q-40 -41 -94 -76t-86 -59q-18 -84 -33 -166t-34 -163t-48 -163t-75 -162q-22 -36 -42 -61t-45 -36 q-16 -7 -35 -7q-10 0 -21 2q-31 6 -75 34q-50 70 -68 147q-13 55 -13 111q0 22 2 44q7 78 36 154t72 145t96 128t111 101l8 8q4 4 4 6l16 272l-2 14q-6 -14 -26 -49t-43 -74t-45 -74t-30 -47q-62 -94 -133 -143q-62 -43 -118 -43q-8 0 -16 1q-63 7 -111 78t-64 215 q-16 102 -24 243t-10 297zM474 -590q-1 -13 -1 -26q0 -52 13 -100q60 98 94 227t48 251q-44 -44 -77 -102t-53 -121t-24 -129zM248 2106q-8 28 2 53t32 46t49 32t56 10t51 -17q36 -28 32 -71t-31 -77t-69 -48t-82 18q-32 26 -40 54zM576 2098q-8 28 2 53t32 46t49 32t56 10 t51 -17q36 -28 32 -71t-31 -77t-69 -48t-82 18q-32 26 -40 54z" />
<glyph unicode="&#x2c6;" horiz-adv-x="748" d="M114 1702l188 330q10 20 38 35t59 19t58 -7t35 -43l124 -362q-24 -24 -53 -35t-54 -10t-43 11t-22 28l-70 160l-96 -172q-16 -28 -48 -34t-61 3t-47 30t-8 47z" />
<glyph unicode="&#x2da;" horiz-adv-x="748" d="M126 1787q2 47 41 98t127 103q102 52 182 54t133 -27t77 -80t14 -106t-57 -105t-133 -78q-76 -24 -146 -23t-124 22t-85 58t-29 84zM258 1801q-10 -35 29 -56t139 1q38 10 71 39t45 59t-6 53t-84 21q-80 -10 -132 -46t-62 -71z" />
<glyph unicode="&#x2dc;" horiz-adv-x="1354" d="M117 1739q19 53 64 112t106 115t120 84t106 18t61 -80q16 -108 57 -159t94 -60t110 14t106 62t82 86t39 83q14 20 43 22t55 -11t40 -41t-2 -66q-92 -146 -211 -230t-231 -93t-200 62t-116 237q-2 4 -7 4t-7 -4q-26 -22 -53 -58t-55 -73t-56 -68t-54 -45q-20 -10 -43 -4 t-39 18q-28 22 -9 75z" />
<glyph unicode="&#x2000;" horiz-adv-x="1250" />
<glyph unicode="&#x2001;" horiz-adv-x="2502" />
<glyph unicode="&#x2002;" horiz-adv-x="1250" />
<glyph unicode="&#x2003;" horiz-adv-x="2502" />
<glyph unicode="&#x2004;" horiz-adv-x="834" />
<glyph unicode="&#x2005;" horiz-adv-x="624" />
<glyph unicode="&#x2006;" horiz-adv-x="416" />
<glyph unicode="&#x2007;" horiz-adv-x="416" />
<glyph unicode="&#x2008;" horiz-adv-x="312" />
<glyph unicode="&#x2009;" horiz-adv-x="500" />
<glyph unicode="&#x200a;" horiz-adv-x="138" />
<glyph unicode="&#x2010;" horiz-adv-x="802" d="M133 638q-1 26 13 54t42 44q18 2 85 5t145 6t145 5t85 2q26 2 43 -20t21 -50t-8 -56t-44 -40l-472 -12q-26 0 -40 18t-15 44z" />
<glyph unicode="&#x2011;" horiz-adv-x="802" d="M133 638q-1 26 13 54t42 44q18 2 85 5t145 6t145 5t85 2q26 2 43 -20t21 -50t-8 -56t-44 -40l-472 -12q-26 0 -40 18t-15 44z" />
<glyph unicode="&#x2012;" horiz-adv-x="802" d="M133 638q-1 26 13 54t42 44q18 2 85 5t145 6t145 5t85 2q26 2 43 -20t21 -50t-8 -56t-44 -40l-472 -12q-26 0 -40 18t-15 44z" />
<glyph unicode="&#x2013;" horiz-adv-x="802" d="M133 638q-1 26 13 54t42 44q18 2 85 5t145 6t145 5t85 2q26 2 43 -20t21 -50t-8 -56t-44 -40l-472 -12q-26 0 -40 18t-15 44z" />
<glyph unicode="&#x2014;" horiz-adv-x="1010" d="M133 638q-1 26 13 54t42 44q12 2 65 3t128 2t161 1h161h128h65q26 2 43 -20t21 -50t-8 -56t-44 -40h-720q-26 0 -40 18t-15 44z" />
<glyph unicode="&#x2018;" horiz-adv-x="636" d="M260 1422q-6 84 14 140t59 86t77 37t66 -10t26 -53q0 -18 -11 -37t-25 -37t-27 -36t-19 -36q-16 -56 0 -106t42 -88q30 -46 21 -71t-36 -31t-64 5t-65 39q-52 114 -58 198z" />
<glyph unicode="&#x2019;" horiz-adv-x="492" d="M148 1622q-2 36 26 53t66 10t77 -37t59 -86t14 -140t-58 -198q-28 -28 -65 -39t-64 -5t-36 31t21 71q26 38 42 88t0 106q-6 18 -19 36t-27 36t-25 37t-11 37z" />
<glyph unicode="&#x201a;" horiz-adv-x="464" d="M126 318q0 36 27 53t65 10t77 -37t59 -86t14 -140t-58 -198q-28 -28 -65 -39t-64 -5t-36 31t21 71q26 38 42 88t0 106q-6 18 -19 36t-27 36t-25 37t-11 37z" />
<glyph unicode="&#x201c;" horiz-adv-x="766" d="M150 1462q-6 84 14 140t59 86t77 37t66 -10t26 -53q0 -18 -11 -37t-25 -37t-27 -36t-19 -36q-16 -56 0 -106t42 -88q30 -46 21 -71t-36 -31t-64 5t-65 39q-52 114 -58 198zM430 1422q-6 84 14 140t59 86t77 37t65 -10t27 -53q0 -18 -11 -37t-25 -37t-27 -36t-19 -36 q-16 -56 0 -106t42 -88q30 -46 21 -71t-36 -31t-64 5t-65 39q-52 114 -58 198z" />
<glyph unicode="&#x201d;" horiz-adv-x="766" d="M148 1622q-2 36 26 53t66 10t77 -37t59 -86t14 -140t-58 -198q-28 -28 -65 -39t-64 -5t-36 31t21 71q26 38 42 88t0 106q-6 18 -19 36t-27 36t-25 37t-11 37zM428 1662q-2 36 26 53t66 10t77 -37t59 -86t14 -140t-58 -198q-28 -28 -65 -39t-64 -5t-36 31t21 71 q26 38 42 88t0 106q-6 18 -19 36t-27 36t-25 37t-11 37z" />
<glyph unicode="&#x201e;" horiz-adv-x="742" d="M108 356q-2 36 26 53t66 10t77 -37t59 -86t14 -140t-58 -198q-28 -28 -65 -39t-64 -5t-36 31t21 71q26 38 42 88t0 106q-6 18 -19 36t-27 36t-25 37t-11 37zM388 396q-2 36 26 53t66 10t77 -37t59 -86t14 -140t-58 -198q-28 -28 -65 -39t-64 -5t-36 31t21 71q26 38 42 88 t0 106q-6 18 -19 36t-27 36t-25 37t-11 37z" />
<glyph unicode="&#x2026;" horiz-adv-x="1302" d="M100 84q-8 28 2 53t32 46t49 32t56 10t51 -17q36 -28 32 -71t-31 -77t-69 -48t-82 18q-32 26 -40 54zM534 84q-8 28 2 53t32 46t49 32t56 10t51 -17q36 -28 32 -71t-31 -77t-69 -48t-82 18q-32 26 -40 54zM968 84q-8 28 2 53t32 46t49 32t56 10t51 -17q36 -28 32 -71 t-31 -77t-69 -48t-82 18q-32 26 -40 54z" />
<glyph unicode="&#x202f;" horiz-adv-x="500" />
<glyph unicode="&#x2039;" horiz-adv-x="708" d="M86 729q-6 31 20 53l340 192l122 108q24 20 56 8t53 -41t23 -66t-36 -63l-314 -218q2 -36 34 -76t75 -79t85 -75t66 -62q4 -30 -11 -60t-39 -49t-55 -21t-61 26q-32 48 -77 95t-91 93l-88 88q-42 42 -69 79t-33 68z" />
<glyph unicode="&#x203a;" horiz-adv-x="556" d="M79 408q11 28 39 51t65 42t67 36t44 35t-2 40q-34 44 -74 83t-62 93q-24 62 -9 106t47 64t69 12t57 -46q8 -16 10 -34l4 -36q2 -18 4 -35t10 -31q10 -22 27 -42t37 -39t39 -36t33 -33q32 -36 20 -80t-45 -84t-73 -72t-64 -46q-6 -4 -25 -14t-41 -21l-42 -21 q-20 -10 -28 -12q-14 -8 -29 -4t-27 14t-22 23t-16 21q-24 38 -13 66z" />
<glyph unicode="&#x205f;" horiz-adv-x="624" />
<glyph unicode="&#x20ac;" horiz-adv-x="944" d="M-83 758q9 34 67 68q10 2 37 6t65 8q28 136 60 268t88 234q92 170 179 253t158 96t124 -34t77 -136t17 -211t-53 -258q-38 6 -54 41t-22 83t-6 104t-2 106t-11 87t-35 47q-30 32 -79 -7t-103 -132t-104 -229t-82 -296q30 4 62 8t61 9t50 8t29 3q40 4 69 -10t35 -35 t-17 -46t-83 -41q-64 -18 -117 -29t-95 -21q-6 -32 -11 -64t-9 -62q58 12 116 22t105 12t78 -9t35 -43q-12 -16 -16 -31t-7 -27t-11 -22t-28 -18q-34 10 -109 -8t-171 -36q2 -72 9 -132t29 -102t63 -64t111 -18q54 2 112 37t113 83t103 102t83 95t54 62t17 3 q14 -86 -16 -164t-87 -143t-130 -113t-147 -75t-139 -29t-103 24q-102 68 -153 176t-65 240q-18 -2 -36 -2h-34q-24 8 -37 23t-17 45q-4 28 21 50t47 30q10 -2 23 -1t29 3q0 34 2 68t6 68q-38 -2 -56 1t-22 7q-76 34 -67 68z" />
<glyph unicode="&#x2122;" horiz-adv-x="2310" d="M1042 82l172 1400q22 140 71 195q44 50 94 50q5 0 11 -1q56 -6 108 -62t78 -138q2 -14 9 -87t14 -176t16 -221t16 -222t13 -177t8 -87q68 310 124 529t103 363t87 222t77 105q24 18 48 18q12 0 25 -5q36 -14 76 -52l66 -1676q3 -9 3 -17q0 -16 -12 -30q-19 -21 -48 -30 q-14 -5 -29 -5l-29 5q-29 9 -41 43l-50 1442q-6 -8 -12 -20t-19 -54t-34 -125t-56 -233t-85 -377t-120 -557q-6 -42 -25 -59t-47 11t-60 114t-63 251t-59 422t-44 627q-44 -326 -74 -559t-51 -392t-33 -256t-23 -151t-21 -75t-24 -29q-12 -6 -40 -1t-55 15t-47 27t-18 35z M-66 1600q0 24 38 56q4 4 18 10t20 6q36 -1 68 -1h30q44 1 87 2t90 5t105 8q2 54 35 87t75 37h10q36 0 71 -24q39 -28 55 -92q50 -2 93 -2t86 -3t89 -13t102 -30q24 -10 37 -34q15 -28 15 -57q0 -20 -8 -37q-10 -20 -32 -22q-42 10 -99 21t-119 16q-26 2 -51 2q-35 0 -70 -4 q-59 -7 -105 -31l-2 -1442q0 -16 -8 -38t-21 -40t-31 -26q-6 -3 -12 -3q-13 0 -28 11q-10 8 -23 19t-23 32t-16 57q-4 22 -4 52q0 20 2 44l-14 1344l-4 14l-314 -6q-32 4 -66 15t-55 27t-21 40z" />
<glyph unicode="&#xe000;" horiz-adv-x="1545" d="M0 1545h1545v-1545h-1545v1545z" />
<glyph unicode="&#xfb01;" horiz-adv-x="970" d="M646 503q2 145 10 302t18 315q8 132 8 249v47q6 42 27 59t45 18t46 -9t34 -22q4 -59 4 -127q0 -45 -2 -94q-4 -123 -10 -253t-11 -257q-4 -91 -4 -172q0 -32 1 -63q2 -108 15 -186t43 -109q16 -17 39 -17q19 0 41 12q50 26 126 126q14 12 27 -1t19 -38q4 -19 4 -40v-15 q-2 -30 -20 -52q-2 -22 -24 -53t-60 -60t-88 -50t-106 -21q-74 4 -114 73t-55 181q-13 99 -13 223v34zM696 1855q0 28 25 48q20 15 59 15q15 0 32 -2q30 -4 54 -33t29 -62q1 -6 1 -12q0 -25 -18 -44q-14 -15 -45 -15q-16 0 -37 4q-44 8 -71 37q-29 31 -29 64zM-61 795 q7 29 29 39t57 11t83 9q-1 35 -1 68q0 206 32 353q37 171 104 277t156 152t187 46q26 -12 37 -35q10 -21 10 -43q0 -26 -14 -50q-13 -22 -33 -34q-106 -20 -169 -101t-95 -190t-42 -228t-10 -217q92 -2 145 -3t78 -1t32 -2t11 -8q24 -4 40 -23t20 -41t-2 -41t-26 -21 l-306 12l28 -720q-8 2 -21 -3t-32 -10q-14 -4 -30 -4q-6 0 -13 1q-24 2 -54 20q-1 11 -1 24q0 26 3 63q4 55 5 138v21q0 76 -6 179q-7 117 -31 275q0 6 -24 4t-53 -7t-56 -7t-35 6q-6 36 -6 62q0 17 3 29z" />
<glyph unicode="&#xfb02;" horiz-adv-x="902" d="M641 526q-1 51 -1 104q0 124 5 259q7 193 17 380t17 353q4 106 4 191q0 49 -1 91q6 42 27 59t45 18h4q22 0 42 -9q22 -10 34 -22q5 -67 5 -154q0 -44 -1 -92q-4 -146 -13 -314t-19 -343t-16 -332q-4 -105 -4 -195q0 -45 1 -87q3 -125 21 -192q17 -64 51 -64h3 q36 3 98 105q14 12 30 -3t25 -41t9 -58t-18 -54q-106 -130 -175 -147q-14 -4 -28 -4q-50 0 -82 51q-41 64 -59 197t-21 303zM-61 795q7 29 29 39t57 11t83 9q-1 35 -1 68q0 206 32 353q37 171 104 277t156 152t187 46q26 -12 37 -35q10 -21 10 -43q0 -26 -14 -50 q-13 -22 -33 -34q-106 -20 -169 -101t-95 -190t-42 -228t-10 -217q92 -2 145 -3t78 -1t32 -2t11 -8q24 -4 40 -23t20 -41t-2 -41t-26 -21l-306 12l28 -720q-8 2 -21 -3t-32 -10q-14 -4 -30 -4q-6 0 -13 1q-24 2 -54 20q-1 11 -1 24q0 26 3 63q4 55 5 138v21q0 76 -6 179 q-7 117 -31 275q0 6 -24 4t-53 -7t-56 -7t-35 6q-6 36 -6 62q0 17 3 29z" />
<glyph unicode="&#xfb03;" horiz-adv-x="1560" d="M1236 503q2 145 10 302t18 315q8 132 8 249v47q6 42 27 59t45 18t46 -9t34 -22q4 -59 4 -127q0 -45 -2 -94q-4 -123 -10 -253t-11 -257q-4 -91 -4 -172q0 -32 1 -63q2 -108 15 -186t43 -109q16 -17 39 -17q19 0 41 12q50 26 126 126q14 12 27 -1t19 -38q4 -19 4 -40v-15 q-2 -30 -20 -52q-2 -22 -24 -53t-60 -60t-88 -50t-106 -21q-74 4 -114 73t-55 181q-13 99 -13 223v34zM1286 1855q0 28 25 48q20 15 59 15q15 0 32 -2q30 -4 54 -33t29 -62q1 -6 1 -12q0 -25 -18 -44q-14 -15 -45 -15q-16 0 -37 4q-44 8 -71 37q-29 31 -29 64zM529 795 q7 29 29 39t57 11t83 9q-1 35 -1 68q0 206 32 353q37 171 104 277t156 152t187 46q26 -12 37 -35q10 -21 10 -43q0 -26 -14 -50q-13 -22 -33 -34q-106 -20 -169 -101t-95 -190t-42 -228t-10 -217q92 -2 145 -3t78 -1t32 -2t11 -8q24 -4 40 -23t20 -41t-2 -41t-26 -21 l-306 12l28 -720q-8 2 -21 -3t-32 -10q-14 -4 -30 -4q-6 0 -13 1q-24 2 -54 20q-1 11 -1 24q0 26 3 63q4 55 5 138v21q0 76 -6 179q-7 117 -31 275q0 6 -24 4t-53 -7t-56 -7t-35 6q-6 36 -6 62q0 17 3 29zM-61 795q7 29 29 39t57 11t83 9q-1 35 -1 68q0 206 32 353 q37 171 104 277t156 152t187 46q26 -12 37 -35q10 -21 10 -43q0 -26 -14 -50q-13 -22 -33 -34q-106 -20 -169 -101t-95 -190t-42 -228t-10 -217q92 -2 145 -3t78 -1t32 -2t11 -8q24 -4 40 -23t20 -41t-2 -41t-26 -21l-306 12l28 -720q-8 2 -21 -3t-32 -10q-14 -4 -30 -4 q-6 0 -13 1q-24 2 -54 20q-1 11 -1 24q0 26 3 63q4 55 5 138v21q0 76 -6 179q-7 117 -31 275q0 6 -24 4t-53 -7t-56 -7t-35 6q-6 36 -6 62q0 17 3 29z" />
<glyph unicode="&#xfb04;" horiz-adv-x="1492" d="M1231 526q-1 51 -1 104q0 124 5 259q7 193 17 380t17 353q4 106 4 191q0 49 -1 91q6 42 27 59t45 18h4q22 0 42 -9q22 -10 34 -22q5 -67 5 -154q0 -44 -1 -92q-4 -146 -13 -314t-19 -343t-16 -332q-4 -105 -4 -195q0 -45 1 -87q3 -125 21 -192q17 -64 51 -64h3 q36 3 98 105q14 12 30 -3t25 -41t9 -58t-18 -54q-106 -130 -175 -147q-14 -4 -28 -4q-50 0 -82 51q-41 64 -59 197t-21 303zM529 795q7 29 29 39t57 11t83 9q-1 35 -1 68q0 206 32 353q37 171 104 277t156 152t187 46q26 -12 37 -35q10 -21 10 -43q0 -26 -14 -50 q-13 -22 -33 -34q-106 -20 -169 -101t-95 -190t-42 -228t-10 -217q92 -2 145 -3t78 -1t32 -2t11 -8q24 -4 40 -23t20 -41t-2 -41t-26 -21l-306 12l28 -720q-8 2 -21 -3t-32 -10q-14 -4 -30 -4q-6 0 -13 1q-24 2 -54 20q-1 11 -1 24q0 26 3 63q4 55 5 138v21q0 76 -6 179 q-7 117 -31 275q0 6 -24 4t-53 -7t-56 -7t-35 6q-6 36 -6 62q0 17 3 29zM-61 795q7 29 29 39t57 11t83 9q-1 35 -1 68q0 206 32 353q37 171 104 277t156 152t187 46q26 -12 37 -35q10 -21 10 -43q0 -26 -14 -50q-13 -22 -33 -34q-106 -20 -169 -101t-95 -190t-42 -228 t-10 -217q92 -2 145 -3t78 -1t32 -2t11 -8q24 -4 40 -23t20 -41t-2 -41t-26 -21l-306 12l28 -720q-8 2 -21 -3t-32 -10q-14 -4 -30 -4q-6 0 -13 1q-24 2 -54 20q-1 11 -1 24q0 26 3 63q4 55 5 138v21q0 76 -6 179q-7 117 -31 275q0 6 -24 4t-53 -7t-56 -7t-35 6q-6 36 -6 62 q0 17 3 29z" />
<glyph horiz-adv-x="422" d="M58 1845q4 21 20 36t35 24t31 9l200 -216q14 -18 11 -41t-17 -41t-36 -26t-46 6l-184 208q-18 20 -14 41z" />
<glyph horiz-adv-x="422" d="M57 1657q-3 23 11 41l200 216q12 0 31 -9t35 -24t20 -36t-14 -41l-184 -208q-24 -14 -46 -6t-36 26t-17 41z" />
</font>
</defs>
</svg>
